<svg xmlns="http://www.w3.org/2000/svg" xmlns:xlink="http://www.w3.org/1999/xlink" width="500" zoomAndPan="magnify" viewBox="0 0 375 374.999991" height="500" preserveAspectRatio="xMidYMid meet" version="1.0"><defs><clipPath id="4893e73989"><path d="M 90.21875 90 L 318.375 90 L 318.375 292.09375 L 90.21875 292.09375 Z M 90.21875 90 " clip-rule="nonzero"/></clipPath><clipPath id="fdd9a56921"><path d="M 57 81.90625 L 109 81.90625 L 109 137 L 57 137 Z M 57 81.90625 " clip-rule="nonzero"/></clipPath></defs><path fill="#e4ebf1" d="M 163.550781 107.066406 C 163.730469 107.15625 163.910156 107.25 164.136719 107.382812 C 164.722656 107.699219 165.308594 107.96875 165.894531 108.285156 C 175.496094 113.066406 187.261719 117.351562 201.183594 121.09375 C 215.96875 125.109375 228.90625 127.363281 239.949219 127.859375 C 249.640625 128.355469 255.453125 127.363281 257.347656 124.972656 C 257.570312 124.703125 257.707031 124.429688 257.84375 124.113281 C 257.886719 124.027344 257.886719 123.933594 257.933594 123.800781 C 258.789062 120.550781 254.328125 116.359375 244.457031 111.214844 C 234.585938 106.121094 222.28125 101.566406 207.496094 97.550781 C 192.667969 93.539062 179.734375 91.28125 168.644531 90.742188 C 158.910156 90.289062 153.140625 91.28125 151.289062 93.761719 C 151.246094 93.808594 151.246094 93.851562 151.203125 93.941406 L 151.15625 93.941406 C 150.976562 94.210938 150.839844 94.527344 150.75 94.84375 C 149.894531 98.046875 154.175781 102.105469 163.550781 107.066406 Z M 187.753906 108.871094 C 186.582031 108.375 185.457031 107.925781 184.375 107.425781 C 184.105469 107.292969 183.832031 107.203125 183.5625 107.066406 C 178.335938 104.585938 175.902344 102.648438 176.304688 101.203125 C 176.710938 99.804688 179.777344 99.3125 185.503906 99.804688 C 187.078125 99.941406 188.699219 100.121094 190.414062 100.390625 C 195.054688 101.066406 200.238281 102.152344 205.964844 103.683594 C 211.328125 105.128906 216.0625 106.660156 220.207031 108.285156 C 222.101562 109.007812 223.859375 109.773438 225.523438 110.539062 C 230.800781 113.019531 233.277344 114.960938 232.875 116.359375 C 232.464844 117.800781 229.402344 118.296875 223.585938 117.800781 C 221.917969 117.667969 220.207031 117.441406 218.359375 117.214844 C 217.683594 117.082031 217.050781 116.988281 216.375 116.898438 C 212.363281 116.222656 207.992188 115.230469 203.257812 113.921875 C 197.355469 112.34375 192.21875 110.632812 187.753906 108.871094 " fill-opacity="1" fill-rule="nonzero"/><path fill="#8b6c43" d="M 225.523438 110.539062 C 223.859375 109.773438 222.101562 109.007812 220.207031 108.285156 C 216.0625 106.660156 211.328125 105.128906 205.964844 103.683594 C 200.238281 102.152344 195.054688 101.066406 190.414062 100.390625 C 188.699219 100.121094 187.078125 99.941406 185.503906 99.804688 C 179.777344 99.3125 176.710938 99.804688 176.304688 101.203125 C 175.902344 102.648438 178.335938 104.585938 183.5625 107.066406 C 183.832031 107.203125 184.105469 107.292969 184.375 107.425781 C 185.457031 107.925781 186.582031 108.375 187.753906 108.871094 C 192.21875 110.632812 197.355469 112.34375 203.257812 113.921875 C 207.992188 115.230469 212.363281 116.222656 216.375 116.898438 C 217.050781 116.988281 217.683594 117.082031 218.359375 117.214844 C 220.207031 117.441406 221.917969 117.667969 223.585938 117.800781 C 229.402344 118.296875 232.464844 117.800781 232.875 116.359375 C 233.277344 114.960938 230.800781 113.019531 225.523438 110.539062 " fill-opacity="1" fill-rule="nonzero"/><path fill="#f7f9fb" d="M 94.949219 130.792969 C 94.972656 130.753906 94.992188 130.722656 95.011719 130.691406 L 95.085938 130.566406 L 94.949219 130.792969 " fill-opacity="1" fill-rule="nonzero"/><path fill="#f7f9fb" d="M 307.78125 195.105469 C 307.332031 194.96875 306.882812 194.882812 306.476562 194.746094 C 303.726562 193.933594 301.066406 192.804688 298.585938 191.359375 C 297.734375 190.867188 296.875 190.324219 296.019531 189.738281 C 293.675781 188.160156 291.464844 186.265625 289.347656 184.054688 C 285.066406 179.59375 280.515625 172.871094 275.78125 163.984375 C 271.320312 155.640625 268.121094 149.734375 266.179688 146.304688 C 265.324219 144.820312 264.738281 143.777344 264.378906 143.238281 C 260.996094 138.054688 257.390625 134.171875 253.652344 131.648438 C 254.824219 129.4375 256.042969 127.183594 257.347656 124.972656 C 255.453125 127.363281 249.640625 128.355469 239.949219 127.859375 C 228.90625 127.363281 215.96875 125.109375 201.183594 121.09375 C 187.261719 117.351562 175.496094 113.066406 165.894531 108.285156 C 165.308594 107.96875 164.722656 107.699219 164.136719 107.382812 C 163.910156 107.25 163.730469 107.15625 163.550781 107.066406 C 154.175781 102.105469 149.894531 98.046875 150.75 94.84375 L 150.613281 94.753906 C 136.191406 115.679688 125.691406 137.285156 119.0625 159.519531 C 113.160156 159.746094 108.15625 156.902344 104.101562 151.039062 C 104.054688 150.996094 104.011719 150.90625 103.964844 150.863281 C 100.492188 145.765625 98.242188 139.496094 97.25 132.054688 C 97.023438 130.65625 96.890625 129.257812 96.796875 127.769531 L 96.574219 127.679688 C 96.347656 128.3125 96.03125 128.988281 95.625 129.664062 C 95.5 129.871094 95.292969 130.242188 95.011719 130.691406 L 94.769531 131.109375 C 94.636719 131.332031 94.542969 131.558594 94.453125 131.691406 C 93.464844 133.359375 92.246094 134.625 90.804688 135.390625 L 90.757812 135.433594 C 91.027344 139 91.253906 141.296875 91.433594 142.292969 C 91.75 144.003906 92.15625 145.675781 92.652344 147.34375 C 93.011719 148.5625 93.417969 149.734375 93.867188 150.863281 C 94.769531 153.25 95.851562 155.507812 97.066406 157.671875 C 102.070312 165.789062 108.425781 170.027344 116.132812 170.390625 C 113.292969 182.070312 111.582031 193.980469 110.90625 206.066406 C 110.09375 220.09375 110.726562 234.34375 112.800781 248.867188 C 120.820312 254.234375 128.890625 258.519531 137.046875 261.722656 C 166.390625 273.175781 196.5 270.472656 227.375 253.648438 C 227.238281 252.699219 227.148438 251.710938 227.011719 250.761719 C 230.753906 252.382812 234.855469 254.773438 239.410156 257.933594 C 240.21875 258.519531 241.121094 259.152344 242.066406 259.917969 C 245.449219 262.667969 249.910156 266.726562 255.363281 272.09375 L 255.410156 272.140625 C 269.605469 287.023438 283.894531 293.382812 298.183594 291.171875 C 297.597656 285.355469 297.28125 279.628906 297.191406 273.898438 C 297.101562 269.839844 297.144531 265.824219 297.28125 261.8125 C 297.597656 252.382812 298.585938 243.09375 300.167969 233.847656 C 300.4375 232.222656 300.75 230.601562 301.066406 228.976562 C 300.121094 228.527344 299.308594 227.894531 298.542969 227.082031 C 297.6875 226.179688 297.101562 225.1875 296.695312 224.152344 C 296.558594 223.789062 296.425781 223.429688 296.378906 223.113281 C 296.019531 221.625 296.199219 220.273438 296.875 219.007812 C 297.28125 218.195312 297.914062 217.429688 298.769531 216.710938 L 298.769531 216.664062 C 298.5 215.988281 298.363281 215.355469 298.363281 214.679688 C 298.363281 214.453125 298.363281 214.273438 298.410156 214.050781 C 298.410156 213.867188 298.453125 213.6875 298.5 213.550781 C 298.679688 212.5625 299.128906 211.792969 299.894531 211.207031 C 299.039062 210.125 298.632812 208.90625 298.632812 207.597656 C 298.632812 207.507812 298.632812 207.417969 298.632812 207.328125 C 298.679688 206.832031 298.8125 206.425781 299.039062 206.066406 C 299.941406 204.394531 302.597656 203.402344 306.972656 203.089844 L 307.601562 203.089844 L 307.691406 202.953125 L 308.730469 200.109375 L 309.226562 198.847656 C 309.269531 198.804688 309.269531 198.714844 309.316406 198.667969 L 309.722656 197.496094 C 309.765625 197.449219 309.765625 197.359375 309.8125 197.316406 C 310.128906 196.457031 310.308594 195.871094 310.394531 195.648438 C 309.496094 195.511719 308.640625 195.332031 307.78125 195.105469 Z M 156.789062 175.800781 C 156.789062 175.667969 156.789062 175.578125 156.746094 175.488281 C 156.789062 175.578125 156.878906 175.667969 156.925781 175.757812 L 156.789062 175.800781 " fill-opacity="1" fill-rule="nonzero"/><path fill="#ffffff" d="M 306.476562 194.746094 C 306.882812 194.882812 307.332031 194.96875 307.78125 195.105469 C 307.917969 193.84375 307.964844 192.804688 307.964844 192.039062 C 307.964844 190.597656 307.421875 189.46875 306.386719 188.703125 C 305.53125 188.070312 304.539062 187.753906 303.410156 187.753906 C 302.554688 187.753906 301.519531 188.113281 300.300781 188.882812 C 298.996094 189.695312 298.453125 190.503906 298.585938 191.359375 C 301.066406 192.804688 303.726562 193.933594 306.476562 194.746094 " fill-opacity="1" fill-rule="nonzero"/><path fill="#ffffff" d="M 317.519531 212.515625 C 317.203125 211.570312 316.664062 210.847656 315.851562 210.257812 L 315.804688 210.257812 C 315.894531 210.125 315.988281 210.035156 316.03125 209.941406 C 316.707031 208.90625 317.023438 207.824219 316.933594 206.789062 L 316.84375 206.425781 C 316.707031 205.703125 316.527344 205.074219 316.210938 204.488281 C 315.042969 202.230469 312.5625 200.789062 308.730469 200.109375 L 307.691406 202.953125 L 307.601562 203.089844 L 306.972656 203.089844 C 302.597656 203.402344 299.941406 204.394531 299.039062 206.066406 C 298.8125 206.425781 298.679688 206.832031 298.632812 207.328125 C 298.632812 207.417969 298.632812 207.507812 298.632812 207.597656 C 298.632812 208.90625 299.039062 210.125 299.894531 211.207031 C 299.128906 211.792969 298.679688 212.5625 298.5 213.550781 L 298.453125 213.6875 L 298.410156 214.050781 C 298.363281 214.273438 298.363281 214.453125 298.363281 214.679688 C 298.363281 215.355469 298.5 215.988281 298.769531 216.664062 L 298.769531 216.710938 C 297.914062 217.429688 297.28125 218.195312 296.875 219.007812 C 296.199219 220.273438 296.019531 221.625 296.378906 223.113281 C 296.425781 223.429688 296.558594 223.789062 296.695312 224.152344 C 297.101562 225.1875 297.6875 226.179688 298.542969 227.082031 C 299.308594 227.894531 300.121094 228.527344 301.066406 228.976562 C 302.285156 229.5625 303.636719 229.878906 305.171875 229.878906 C 307.78125 229.878906 310.035156 229.429688 311.976562 228.480469 C 312.109375 228.4375 312.199219 228.390625 312.292969 228.347656 C 313.6875 227.398438 314.632812 226.226562 315.042969 224.917969 C 315.3125 223.96875 315.3125 222.933594 315.042969 221.804688 C 315.085938 221.761719 315.085938 221.761719 315.128906 221.714844 C 316.980469 220.273438 317.878906 218.242188 317.878906 215.582031 C 317.878906 215.445312 317.878906 215.265625 317.878906 215.128906 C 317.835938 214.003906 317.746094 213.101562 317.519531 212.515625 " fill-opacity="1" fill-rule="nonzero"/><path fill="#ffffff" d="M 96.574219 127.632812 C 96.617188 127.5 96.664062 127.316406 96.707031 127.183594 C 97.203125 125.199219 96.574219 123.441406 94.859375 121.90625 C 94.816406 121.859375 94.722656 121.816406 94.679688 121.769531 C 94.722656 121.722656 94.769531 121.636719 94.816406 121.589844 C 94.859375 121.546875 94.949219 121.453125 94.996094 121.410156 C 95.039062 121.320312 95.128906 121.230469 95.222656 121.136719 C 97.789062 118.070312 99.367188 114.507812 99.910156 110.496094 C 100.269531 108.511719 100.492188 106.347656 100.585938 103.953125 C 100.765625 101.203125 101.800781 98.632812 103.695312 96.242188 C 104.191406 95.65625 104.730469 95.070312 105.363281 94.574219 C 105.679688 94.304688 105.992188 94.03125 106.261719 93.808594 C 108.382812 91.777344 108.878906 89.207031 107.707031 86.183594 C 107.617188 85.914062 107.480469 85.644531 107.300781 85.328125 C 105.769531 83.386719 103.378906 82.394531 100.179688 82.394531 C 96.121094 82.53125 93.101562 84.695312 91.121094 88.980469 C 90.351562 90.515625 89.8125 92.410156 89.40625 94.664062 C 89.226562 95.519531 89.089844 96.378906 88.957031 97.234375 C 88.234375 97.460938 87.46875 97.503906 86.703125 97.28125 C 85.753906 97.007812 84.808594 96.378906 83.863281 95.386719 C 83.1875 94.617188 82.421875 93.988281 81.652344 93.492188 L 81.429688 93.355469 C 76.695312 90.335938 72.640625 89.523438 69.257812 90.875 C 68.359375 91.234375 67.546875 91.734375 66.824219 92.363281 C 66.734375 92.453125 66.644531 92.542969 66.507812 92.632812 C 65.742188 93.398438 65.066406 94.210938 64.570312 95.070312 C 64.253906 95.566406 64.03125 96.015625 63.804688 96.511719 C 62.769531 98.8125 62.542969 101.476562 63.039062 104.40625 L 63.039062 104.453125 L 62.902344 104.496094 C 61.957031 104.992188 61.234375 105.714844 60.648438 106.570312 C 60.246094 107.203125 59.929688 107.835938 59.613281 108.511719 C 59.476562 108.78125 59.386719 109.050781 59.296875 109.320312 C 58.980469 110.222656 58.800781 111.125 58.757812 112.074219 C 58.621094 114.464844 59.074219 116.675781 60.019531 118.613281 C 59.792969 118.746094 59.613281 118.882812 59.523438 118.972656 C 59.117188 119.425781 58.800781 119.921875 58.53125 120.417969 C 58.125 121.183594 57.808594 121.996094 57.675781 122.941406 C 57.359375 126.867188 58.53125 130.113281 61.144531 132.683594 C 61.414062 132.957031 61.6875 133.226562 61.957031 133.453125 C 62.949219 134.128906 63.984375 134.578125 65.023438 134.894531 C 68.175781 135.433594 70.746094 135.074219 72.773438 133.769531 L 73.136719 133.585938 L 73.179688 133.632812 C 74.9375 134.398438 76.695312 134.941406 78.542969 135.300781 C 81.472656 135.796875 84.222656 134.941406 86.882812 132.683594 C 87.0625 132.550781 87.195312 132.414062 87.332031 132.234375 C 87.378906 132.1875 87.421875 132.144531 87.46875 132.097656 C 87.421875 132.1875 87.421875 132.28125 87.421875 132.414062 C 87.378906 135.121094 88.234375 136.25 90.035156 135.75 C 90.261719 135.664062 90.53125 135.570312 90.757812 135.433594 L 90.804688 135.390625 C 92.246094 134.625 93.464844 133.359375 94.453125 131.691406 C 94.542969 131.558594 94.636719 131.332031 94.769531 131.109375 L 95.019531 130.675781 C 95.296875 130.234375 95.503906 129.871094 95.625 129.664062 C 96.03125 128.988281 96.347656 128.3125 96.574219 127.679688 L 96.574219 127.632812 " fill-opacity="1" fill-rule="nonzero"/><path fill="#ffffff" d="M 177.882812 185.8125 C 176.125 185.769531 174.457031 185.589844 172.878906 185.363281 C 170.808594 185.003906 168.871094 184.460938 167.113281 183.738281 C 165.171875 182.972656 163.371094 181.9375 161.792969 180.71875 C 163.324219 185.363281 166.253906 188.882812 170.625 191.179688 C 173.917969 192.941406 177.976562 194.023438 182.886719 194.476562 C 183.246094 193.933594 183.609375 193.390625 183.96875 192.804688 C 184.734375 191.589844 185.546875 190.367188 186.355469 189.105469 C 187.484375 187.304688 188.609375 185.410156 189.785156 183.425781 C 186.355469 185.003906 182.886719 185.769531 179.328125 185.8125 C 178.832031 185.8125 178.335938 185.8125 177.882812 185.8125 " fill-opacity="1" fill-rule="nonzero"/><path fill="#db0f33" d="M 173.0625 202.140625 C 169.953125 201.691406 166.34375 202.730469 162.242188 205.253906 C 159.855469 206.699219 157.332031 208.636719 154.671875 211.117188 C 153.949219 211.746094 153.230469 212.425781 152.464844 213.148438 C 152.507812 213.550781 152.554688 213.957031 152.644531 214.273438 C 153.003906 215.898438 153.949219 216.84375 155.4375 217.070312 C 157.824219 217.566406 160.9375 216.574219 164.8125 214.136719 C 168.464844 211.972656 172.339844 208.363281 176.484375 203.359375 C 175.402344 202.730469 174.277344 202.320312 173.0625 202.140625 " fill-opacity="1" fill-rule="nonzero"/><path fill="#200000" d="M 170.625 191.179688 C 166.253906 188.882812 163.324219 185.363281 161.792969 180.71875 C 160.125 179.410156 158.59375 177.921875 157.285156 176.164062 C 157.148438 176.070312 157.0625 175.9375 156.972656 175.800781 C 156.878906 175.714844 156.789062 175.625 156.746094 175.488281 C 156.789062 175.578125 156.789062 175.667969 156.789062 175.800781 C 158.414062 185.542969 157.105469 196.277344 152.824219 208.050781 C 152.464844 210.082031 152.328125 211.792969 152.464844 213.148438 C 153.230469 212.425781 153.949219 211.746094 154.671875 211.117188 C 157.332031 208.636719 159.855469 206.699219 162.242188 205.253906 C 166.34375 202.730469 169.953125 201.691406 173.0625 202.140625 C 174.277344 202.320312 175.402344 202.730469 176.484375 203.359375 C 176.621094 203.132812 176.800781 202.953125 176.984375 202.730469 L 177.839844 201.644531 C 178.0625 201.332031 178.335938 201.015625 178.558594 200.699219 C 179.957031 198.757812 181.398438 196.683594 182.886719 194.476562 C 177.976562 194.023438 173.917969 192.941406 170.625 191.179688 " fill-opacity="1" fill-rule="nonzero"/><path fill="#dee0eb" d="M 312.699219 208.59375 C 310.488281 210.035156 308.460938 210.757812 306.523438 210.757812 C 304.761719 210.757812 303.097656 210.308594 301.605469 209.359375 C 300.164062 208.457031 299.308594 207.375 299.039062 206.066406 C 298.8125 206.429688 298.679688 206.835938 298.632812 207.328125 C 298.632812 207.421875 298.632812 207.511719 298.632812 207.601562 C 298.632812 208.910156 299.039062 210.125 299.894531 211.207031 C 300.121094 211.523438 300.347656 211.796875 300.660156 212.109375 C 302.105469 213.507812 303.90625 214.183594 306.070312 214.183594 C 308.460938 214.183594 310.894531 213.507812 313.328125 212.109375 C 314.273438 211.570312 315.085938 210.984375 315.671875 210.398438 C 315.714844 210.351562 315.761719 210.308594 315.804688 210.261719 C 315.894531 210.125 315.988281 210.035156 316.03125 209.945312 C 316.707031 208.910156 317.023438 207.828125 316.933594 206.789062 L 316.84375 206.429688 C 316.707031 205.707031 316.527344 205.074219 316.210938 204.488281 C 315.894531 205.929688 314.722656 207.285156 312.699219 208.59375 " fill-opacity="1" fill-rule="nonzero"/><path fill="#dee0eb" d="M 298.410156 214.050781 C 298.363281 214.277344 298.363281 214.457031 298.363281 214.683594 C 298.363281 215.359375 298.5 215.988281 298.769531 216.664062 L 298.769531 216.710938 C 299.265625 218.019531 300.300781 219.328125 301.789062 220.636719 C 304.085938 222.664062 306.386719 223.65625 308.683594 223.65625 C 311.253906 223.65625 313.371094 223.023438 315.039062 221.808594 C 315.085938 221.761719 315.085938 221.761719 315.128906 221.71875 C 316.980469 220.273438 317.878906 218.242188 317.878906 215.582031 C 317.878906 215.449219 317.878906 215.269531 317.878906 215.132812 C 317.339844 215.628906 316.796875 216.035156 316.300781 216.441406 C 315.265625 217.296875 314.5 217.925781 313.914062 218.289062 C 313.101562 218.785156 312.019531 219.238281 310.667969 219.550781 C 309.359375 219.867188 308.234375 220.003906 307.199219 220.003906 C 304.71875 220.003906 302.734375 219.191406 301.292969 217.613281 C 300.253906 216.484375 299.308594 215.179688 298.453125 213.6875 L 298.410156 214.050781 " fill-opacity="1" fill-rule="nonzero"/><path fill="#dee0eb" d="M 297.777344 220.863281 C 297.417969 220.183594 297.101562 219.597656 296.875 219.011719 C 296.199219 220.273438 296.019531 221.628906 296.378906 223.113281 C 296.425781 223.429688 296.558594 223.792969 296.695312 224.152344 C 297.101562 225.191406 297.6875 226.179688 298.542969 227.085938 C 299.308594 227.898438 300.121094 228.527344 301.066406 228.976562 C 302.285156 229.5625 303.636719 229.878906 305.167969 229.878906 C 307.78125 229.878906 310.035156 229.429688 311.976562 228.484375 C 312.109375 228.4375 312.199219 228.390625 312.292969 228.347656 C 313.6875 227.398438 314.632812 226.226562 315.039062 224.917969 C 314.5 225.191406 313.550781 225.59375 312.199219 226.136719 C 310.847656 226.632812 309.402344 226.90625 307.828125 226.949219 C 306.25 226.996094 304.988281 226.859375 304.132812 226.632812 C 303.230469 226.40625 302.105469 225.730469 300.75 224.695312 C 299.761719 223.925781 298.769531 222.621094 297.777344 220.863281 " fill-opacity="1" fill-rule="nonzero"/><path fill="#e4ebf1" d="M 163.550781 107.070312 C 163.730469 107.160156 163.910156 107.25 164.136719 107.386719 C 164.722656 107.699219 165.308594 107.972656 165.894531 108.289062 C 175.496094 113.066406 187.257812 117.351562 201.183594 121.097656 C 215.96875 125.109375 228.90625 127.363281 239.949219 127.859375 C 249.636719 128.359375 255.453125 127.363281 257.347656 124.976562 C 257.570312 124.703125 257.707031 124.433594 257.84375 124.117188 C 257.886719 124.027344 257.886719 123.9375 257.933594 123.800781 C 258.789062 120.554688 254.324219 116.359375 244.457031 111.21875 C 234.585938 106.121094 222.28125 101.566406 207.496094 97.554688 C 192.664062 93.539062 179.730469 91.285156 168.644531 90.742188 C 158.910156 90.292969 153.140625 91.285156 151.289062 93.761719 C 151.246094 93.808594 151.246094 93.855469 151.199219 93.945312 L 151.15625 93.945312 C 150.976562 94.214844 150.839844 94.53125 150.75 94.847656 C 149.894531 98.050781 154.175781 102.109375 163.550781 107.070312 Z M 187.753906 108.875 C 186.582031 108.378906 185.457031 107.925781 184.375 107.429688 C 184.105469 107.296875 183.832031 107.203125 183.5625 107.070312 C 178.335938 104.589844 175.902344 102.648438 176.304688 101.207031 C 176.710938 99.808594 179.777344 99.3125 185.5 99.808594 C 187.078125 99.941406 188.699219 100.125 190.414062 100.394531 C 195.054688 101.070312 200.238281 102.152344 205.960938 103.6875 C 211.328125 105.128906 216.0625 106.664062 220.207031 108.289062 C 222.101562 109.007812 223.859375 109.777344 225.523438 110.542969 C 230.800781 113.023438 233.277344 114.960938 232.871094 116.359375 C 232.464844 117.804688 229.402344 118.300781 223.585938 117.804688 C 221.917969 117.667969 220.207031 117.441406 218.359375 117.214844 C 217.683594 117.082031 217.050781 116.992188 216.375 116.902344 C 212.363281 116.222656 207.992188 115.234375 203.257812 113.921875 C 197.355469 112.34375 192.214844 110.632812 187.753906 108.875 " fill-opacity="1" fill-rule="nonzero"/><path fill="#624d2f" d="M 184.375 107.429688 C 185.457031 107.925781 186.582031 108.378906 187.753906 108.875 C 192.214844 110.632812 197.355469 112.34375 203.257812 113.921875 C 207.992188 115.234375 212.363281 116.222656 216.375 116.902344 C 209.207031 109.730469 198.527344 106.574219 184.375 107.429688 " fill-opacity="1" fill-rule="nonzero"/><path fill="#e4ebf1" d="M 150.75 94.847656 L 150.613281 94.757812 C 136.191406 115.683594 125.691406 137.289062 119.0625 159.523438 C 118.34375 161.867188 117.667969 164.214844 117.082031 166.558594 C 116.765625 167.824219 116.449219 169.085938 116.132812 170.390625 C 113.292969 182.074219 111.582031 193.980469 110.90625 206.066406 C 110.09375 220.09375 110.726562 234.347656 112.800781 248.871094 C 120.820312 254.234375 128.890625 258.519531 137.046875 261.722656 C 166.390625 273.179688 196.496094 270.472656 227.375 253.648438 C 227.238281 252.703125 227.148438 251.710938 227.011719 250.765625 C 226.609375 247.378906 226.335938 244 226.15625 240.613281 C 222.054688 243.726562 215.832031 246.386719 207.585938 248.597656 C 197.398438 251.304688 186.898438 252.65625 176.082031 252.65625 C 167.832031 252.65625 160.441406 251.890625 153.949219 250.3125 C 145.609375 248.285156 138.804688 244.671875 133.53125 239.398438 C 132.765625 236.554688 132.179688 234.164062 131.773438 232.226562 C 131.097656 229.023438 130.738281 226.363281 130.738281 224.199219 C 130.738281 205.210938 132.539062 186.449219 136.101562 167.957031 C 141.734375 138.777344 150.886719 118.480469 163.550781 107.070312 C 154.175781 102.109375 149.894531 98.050781 150.75 94.847656 Z M 137.902344 144.683594 C 135.605469 150.503906 133.578125 156.457031 131.863281 162.546875 C 133.578125 156.457031 135.605469 150.503906 137.902344 144.683594 C 138.039062 144.277344 138.175781 143.917969 138.355469 143.511719 C 138.175781 143.917969 138.039062 144.277344 137.902344 144.683594 Z M 153.140625 112.34375 C 149.398438 118.480469 145.972656 124.792969 142.953125 131.242188 C 145.972656 124.792969 149.398438 118.480469 153.140625 112.34375 Z M 128.484375 177.25 C 126.996094 184.417969 125.871094 191.816406 125.148438 199.34375 C 125.871094 191.816406 126.996094 184.417969 128.484375 177.25 Z M 124.246094 218.738281 C 123.976562 225.101562 123.976562 231.636719 124.199219 238.269531 C 123.976562 231.636719 123.976562 225.101562 124.246094 218.738281 C 124.292969 217.613281 124.339844 216.484375 124.382812 215.359375 C 124.339844 216.484375 124.292969 217.613281 124.246094 218.738281 " fill-opacity="1" fill-rule="nonzero"/><path fill="#eceef0" d="M 59.296875 109.324219 L 59.746094 109.234375 C 59.703125 109.007812 59.65625 108.738281 59.613281 108.511719 C 59.476562 108.78125 59.386719 109.050781 59.296875 109.324219 " fill-opacity="1" fill-rule="nonzero"/><path fill="#dee0eb" d="M 59.746094 109.234375 L 59.296875 109.324219 C 58.980469 110.226562 58.800781 111.128906 58.753906 112.074219 C 58.621094 114.464844 59.070312 116.675781 60.019531 118.613281 C 60.515625 119.652344 61.191406 120.644531 62.046875 121.546875 C 63.039062 122.585938 64.210938 123.441406 65.5625 124.027344 C 67.140625 124.75 68.761719 125.109375 70.476562 125.15625 C 72.050781 125.019531 73.628906 124.613281 75.117188 123.9375 L 75.117188 123.890625 C 75.253906 123.847656 75.34375 123.847656 75.386719 123.800781 C 75.613281 123.664062 75.839844 123.53125 76.0625 123.394531 C 76.964844 122.855469 77.640625 122.179688 78.09375 121.320312 L 77.867188 121.1875 C 76.695312 121.5 75.570312 121.636719 74.488281 121.636719 C 70.699219 121.636719 67.273438 120.148438 64.253906 117.214844 C 61.957031 114.917969 60.421875 112.257812 59.746094 109.234375 " fill-opacity="1" fill-rule="nonzero"/><path fill="#eceef0" d="M 77.867188 121.1875 L 78.09375 121.320312 C 78.136719 121.273438 78.183594 121.1875 78.226562 121.097656 C 78.09375 121.140625 78.003906 121.140625 77.867188 121.1875 " fill-opacity="1" fill-rule="nonzero"/><path fill="#eceef0" d="M 75.386719 130.65625 L 75.34375 130.65625 L 75.34375 130.703125 C 75.34375 130.65625 75.34375 130.65625 75.386719 130.65625 " fill-opacity="1" fill-rule="nonzero"/><path fill="#dee0eb" d="M 75.164062 131.152344 L 75.164062 131.109375 C 71.195312 132.6875 67.769531 132.777344 64.839844 131.289062 C 64.660156 131.152344 64.480469 131.0625 64.347656 130.972656 C 60.695312 128.492188 58.753906 124.976562 58.53125 120.417969 C 58.125 121.1875 57.808594 122 57.675781 122.945312 C 57.359375 126.871094 58.53125 130.117188 61.144531 132.6875 C 61.414062 132.957031 61.6875 133.230469 61.957031 133.453125 C 62.949219 134.128906 63.984375 134.582031 65.019531 134.898438 C 68.175781 135.4375 70.746094 135.078125 72.773438 133.769531 C 72.910156 133.722656 73 133.632812 73.136719 133.542969 C 73.179688 133.5 73.179688 133.5 73.222656 133.453125 C 73.992188 132.867188 74.621094 132.101562 75.164062 131.152344 " fill-opacity="1" fill-rule="nonzero"/><path fill="#eceef0" d="M 73.179688 133.632812 L 73.222656 133.453125 C 73.179688 133.5 73.179688 133.5 73.136719 133.542969 L 73.136719 133.589844 L 73.179688 133.632812 " fill-opacity="1" fill-rule="nonzero"/><path fill="#cfd3da" d="M 73.136719 133.542969 C 73 133.632812 72.910156 133.722656 72.773438 133.769531 L 73.136719 133.589844 L 73.136719 133.542969 " fill-opacity="1" fill-rule="nonzero"/><path fill="#eceef0" d="M 94.859375 130.476562 L 95.085938 130.566406 L 94.949219 130.792969 C 95.265625 130.296875 95.492188 129.890625 95.625 129.664062 C 95.355469 129.980469 95.085938 130.25 94.859375 130.476562 " fill-opacity="1" fill-rule="nonzero"/><path fill="#e4ebf1" d="M 96.796875 127.769531 L 96.574219 127.679688 C 96.347656 128.3125 96.03125 128.988281 95.625 129.664062 C 95.492188 129.890625 95.265625 130.296875 94.949219 130.792969 L 95.085938 130.566406 L 94.769531 131.109375 C 94.632812 131.332031 94.542969 131.558594 94.453125 131.695312 C 93.460938 133.363281 92.246094 134.625 90.804688 135.394531 L 90.757812 135.4375 C 91.027344 139 91.253906 141.300781 91.433594 142.292969 C 91.75 144.007812 92.15625 145.675781 92.648438 147.34375 C 93.011719 148.5625 93.417969 149.734375 93.867188 150.863281 C 94.769531 153.253906 95.851562 155.507812 97.066406 157.675781 C 102.070312 165.792969 108.425781 170.03125 116.132812 170.390625 C 116.449219 169.085938 116.765625 167.824219 117.082031 166.558594 C 111.039062 165.613281 105.675781 161.914062 100.988281 155.460938 C 99.910156 153.976562 98.960938 152.441406 98.105469 150.863281 C 95.625 146.308594 94.140625 141.480469 93.730469 136.429688 C 94.09375 136.027344 94.316406 135.800781 94.410156 135.710938 C 95.492188 134.492188 96.4375 133.273438 97.25 132.054688 C 97.023438 130.65625 96.886719 129.257812 96.796875 127.769531 " fill-opacity="1" fill-rule="nonzero"/><path fill="#e4ebf1" d="M 90.804688 135.394531 L 90.757812 135.4375 Z M 90.804688 135.394531 " fill-opacity="1" fill-rule="nonzero"/><path fill="#dee0eb" d="M 75.34375 130.746094 L 75.34375 130.792969 C 75.296875 130.839844 75.296875 130.882812 75.253906 130.929688 L 75.164062 131.109375 L 75.164062 131.152344 C 74.621094 132.101562 73.992188 132.867188 73.222656 133.453125 L 73.179688 133.632812 C 74.9375 134.398438 76.695312 134.941406 78.542969 135.300781 C 81.472656 135.800781 84.222656 134.941406 86.882812 132.6875 C 87.0625 132.550781 87.195312 132.417969 87.332031 132.234375 C 87.378906 132.191406 87.421875 132.144531 87.46875 132.101562 L 88.234375 131.109375 L 87.46875 132.101562 C 87.421875 132.191406 87.421875 132.28125 87.421875 132.417969 C 87.378906 135.121094 88.234375 136.25 90.035156 135.753906 C 90.261719 135.664062 90.53125 135.574219 90.757812 135.4375 L 90.804688 135.394531 C 92.246094 134.625 93.464844 133.363281 94.453125 131.695312 C 94.542969 131.558594 94.632812 131.332031 94.769531 131.109375 L 95.085938 130.566406 L 94.859375 130.476562 C 92.964844 132.234375 91.433594 131.828125 90.261719 129.214844 C 90.214844 129.167969 90.214844 129.078125 90.171875 129.035156 C 90.035156 128.71875 89.992188 128.582031 89.945312 128.535156 C 89.8125 128.3125 89.675781 128.175781 89.585938 128.132812 C 89.359375 127.996094 89.046875 127.996094 88.730469 128.222656 C 88.414062 128.359375 87.558594 128.945312 86.203125 129.890625 C 82.058594 132.417969 78.453125 132.6875 75.386719 130.65625 C 75.34375 130.703125 75.34375 130.703125 75.34375 130.746094 " fill-opacity="1" fill-rule="nonzero"/><path fill="#cfd3da" d="M 75.34375 130.703125 L 75.34375 130.746094 L 75.386719 130.65625 C 75.34375 130.65625 75.34375 130.65625 75.34375 130.703125 " fill-opacity="1" fill-rule="nonzero"/><path fill="#dee0eb" d="M 64.253906 97.777344 C 64.253906 96.921875 64.347656 96.019531 64.570312 95.070312 C 64.253906 95.566406 64.03125 96.019531 63.804688 96.515625 C 62.769531 98.816406 62.542969 101.476562 63.039062 104.40625 L 63.128906 104.902344 C 64.480469 108.738281 66.417969 111.488281 68.898438 113.203125 C 70.160156 114.015625 71.421875 114.554688 72.636719 114.78125 C 72.730469 114.78125 72.820312 114.78125 72.953125 114.824219 C 73.222656 114.871094 73.496094 114.871094 73.8125 114.917969 C 75.027344 114.960938 76.109375 114.871094 77.054688 114.554688 C 77.28125 114.464844 77.460938 114.375 77.640625 114.332031 C 78.769531 113.832031 79.671875 113.160156 80.4375 112.210938 C 80.933594 111.625 81.335938 110.992188 81.652344 110.40625 C 80.664062 110.855469 79.488281 111.082031 78.136719 111.082031 C 75.117188 111.082031 72.1875 110 69.347656 107.835938 C 65.96875 105.21875 64.253906 101.882812 64.253906 97.777344 " fill-opacity="1" fill-rule="nonzero"/><path fill="#eceef0" d="M 63.039062 104.40625 L 63.039062 104.453125 C 63.039062 104.496094 63.039062 104.589844 63.082031 104.679688 L 63.082031 104.722656 C 63.128906 104.769531 63.128906 104.859375 63.128906 104.902344 L 63.039062 104.40625 " fill-opacity="1" fill-rule="nonzero"/><path fill="#e4ebf1" d="M 296.246094 227.355469 C 296.46875 228.574219 297.054688 229.789062 297.914062 231.097656 C 298.5 232.046875 299.265625 232.945312 300.164062 233.847656 C 300.4375 232.226562 300.75 230.601562 301.066406 228.976562 C 300.121094 228.527344 299.308594 227.898438 298.542969 227.085938 C 297.6875 226.179688 297.101562 225.191406 296.695312 224.152344 C 296.558594 223.792969 296.425781 223.429688 296.378906 223.113281 L 296.0625 224.964844 C 296.0625 226.046875 296.109375 226.859375 296.246094 227.355469 " fill-opacity="1" fill-rule="nonzero"/><path fill="#e4ebf1" d="M 297.191406 273.902344 C 297.101562 269.839844 297.144531 265.828125 297.28125 261.8125 C 285.878906 263.300781 274.746094 259.917969 263.792969 251.710938 C 260.007812 247.605469 256.941406 244.496094 254.640625 242.328125 C 251.035156 238.945312 247.339844 236.195312 243.554688 234.164062 C 246.441406 203.992188 253.199219 176.480469 263.835938 151.628906 C 264.601562 149.828125 265.414062 148.066406 266.179688 146.308594 C 265.324219 144.820312 264.738281 143.78125 264.378906 143.238281 C 260.996094 138.054688 257.390625 134.175781 253.652344 131.648438 C 234.675781 166.738281 225.4375 200.699219 225.886719 233.535156 C 225.929688 235.921875 226.019531 238.269531 226.15625 240.613281 C 226.335938 244 226.609375 247.378906 227.011719 250.765625 C 230.753906 252.386719 234.855469 254.777344 239.410156 257.933594 C 240.21875 258.519531 241.121094 259.152344 242.066406 259.917969 C 245.449219 262.667969 249.910156 266.730469 255.363281 272.097656 L 255.410156 272.140625 C 269.605469 287.023438 283.894531 293.382812 298.183594 291.171875 C 297.597656 285.355469 297.28125 279.628906 297.191406 273.902344 " fill-opacity="1" fill-rule="nonzero"/><g clip-path="url(#4893e73989)"><path fill="#445a75" d="M 103.597656 151.195312 C 100.039062 145.976562 97.75 139.578125 96.757812 132.121094 C 96.550781 130.824219 96.40625 129.449219 96.304688 127.800781 L 96.21875 127.257812 C 96.175781 126.988281 96.363281 126.738281 96.632812 126.695312 C 96.90625 126.65625 97.15625 126.839844 97.195312 127.109375 L 97.289062 127.695312 C 97.390625 129.355469 97.53125 130.699219 97.738281 131.976562 C 98.710938 139.292969 100.945312 145.550781 104.371094 150.585938 L 104.464844 150.710938 C 108.371094 156.347656 113.144531 159.140625 118.691406 159.039062 C 125.328125 136.910156 135.929688 115.195312 150.203125 94.480469 L 150.742188 93.667969 C 150.765625 93.636719 150.792969 93.609375 150.820312 93.582031 C 150.847656 93.527344 150.882812 93.46875 150.9375 93.414062 C 152.855469 90.835938 158.664062 89.785156 168.664062 90.246094 C 179.789062 90.789062 192.894531 93.085938 207.625 97.074219 C 222.34375 101.070312 234.808594 105.679688 244.683594 110.777344 C 254.859375 116.078125 259.347656 120.378906 258.410156 123.929688 L 258.375 124.0625 C 258.359375 124.140625 258.339844 124.234375 258.285156 124.339844 C 258.148438 124.664062 257.996094 124.960938 257.753906 125.261719 C 256.515625 127.355469 255.363281 129.484375 254.296875 131.492188 C 257.980469 134.070312 261.507812 137.929688 264.792969 142.96875 C 265.097656 143.429688 265.5625 144.234375 266.199219 145.34375 L 266.609375 146.058594 C 268.453125 149.320312 271.503906 154.941406 276.214844 163.753906 C 280.90625 172.558594 285.445312 179.277344 289.707031 183.714844 C 291.84375 185.945312 294 187.78125 296.296875 189.332031 C 296.914062 189.75 297.535156 190.152344 298.152344 190.527344 C 298.363281 189.796875 298.988281 189.117188 300.039062 188.464844 C 301.304688 187.667969 302.4375 187.261719 303.410156 187.261719 C 304.640625 187.261719 305.738281 187.609375 306.679688 188.304688 C 307.84375 189.164062 308.460938 190.457031 308.460938 192.039062 C 308.460938 192.617188 308.433594 193.53125 308.320312 194.734375 C 309.039062 194.910156 309.75 195.050781 310.46875 195.15625 C 310.617188 195.183594 310.75 195.269531 310.824219 195.398438 C 310.902344 195.53125 310.910156 195.691406 310.855469 195.832031 C 310.824219 195.917969 310.773438 196.0625 310.707031 196.261719 C 310.605469 196.5625 310.464844 196.980469 310.277344 197.488281 C 310.265625 197.519531 310.25 197.550781 310.230469 197.582031 C 310.214844 197.621094 310.199219 197.667969 310.167969 197.722656 L 309.785156 198.832031 C 309.773438 198.871094 309.753906 198.902344 309.734375 198.9375 C 309.71875 198.976562 309.699219 199.03125 309.664062 199.085938 L 309.410156 199.738281 C 313.089844 200.488281 315.464844 201.972656 316.652344 204.261719 C 316.949219 204.816406 317.15625 205.441406 317.316406 206.285156 C 317.351562 206.359375 317.382812 206.460938 317.382812 206.519531 C 317.410156 206.574219 317.421875 206.683594 317.425781 206.746094 C 317.523438 207.855469 317.203125 209.023438 316.496094 210.140625 C 317.203125 210.738281 317.691406 211.46875 317.988281 212.359375 C 318.203125 212.914062 318.320312 213.746094 318.375 215.113281 L 318.375 215.582031 C 318.375 218.316406 317.4375 220.46875 315.585938 221.988281 C 315.808594 223.082031 315.785156 224.113281 315.515625 225.054688 C 315.078125 226.46875 314.058594 227.746094 312.570312 228.757812 C 312.390625 228.851562 312.285156 228.902344 312.132812 228.953125 C 310.199219 229.902344 307.902344 230.375 305.167969 230.375 C 303.820312 230.375 302.59375 230.148438 301.433594 229.679688 C 301.160156 231.097656 300.890625 232.515625 300.652344 233.929688 C 299.046875 243.339844 298.082031 252.726562 297.777344 261.828125 C 297.628906 266.136719 297.601562 270.082031 297.6875 273.890625 C 297.78125 279.8125 298.101562 285.449219 298.675781 291.125 C 298.703125 291.386719 298.519531 291.625 298.257812 291.664062 C 296.410156 291.949219 294.554688 292.09375 292.699219 292.09375 C 280.121094 292.09375 267.484375 285.515625 255.050781 272.484375 C 249.742188 267.257812 245.28125 263.171875 241.753906 260.304688 C 240.960938 259.660156 240.199219 259.113281 239.492188 258.605469 L 239.117188 258.335938 C 234.839844 255.367188 231.066406 253.148438 227.617188 251.574219 C 227.640625 251.765625 227.664062 251.957031 227.683594 252.148438 C 227.742188 252.628906 227.796875 253.109375 227.863281 253.578125 C 227.894531 253.785156 227.792969 253.984375 227.609375 254.085938 C 196.730469 270.910156 166.199219 273.632812 136.867188 262.183594 C 128.75 258.996094 120.558594 254.65625 112.523438 249.28125 C 112.40625 249.203125 112.328125 249.078125 112.308594 248.9375 C 110.242188 234.457031 109.601562 220.023438 110.410156 206.039062 C 111.085938 194.003906 112.800781 182.167969 115.511719 170.851562 C 107.933594 170.296875 101.585938 165.953125 96.648438 157.933594 C 95.332031 155.59375 94.277344 153.347656 93.40625 151.039062 C 92.953125 149.90625 92.539062 148.710938 92.175781 147.484375 C 91.664062 145.761719 91.261719 144.09375 90.945312 142.382812 C 90.761719 141.367188 90.539062 139.109375 90.265625 135.476562 C 90.246094 135.203125 90.449219 134.964844 90.71875 134.945312 C 90.992188 134.917969 91.230469 135.128906 91.25 135.402344 C 91.519531 138.953125 91.746094 141.242188 91.917969 142.203125 C 92.230469 143.878906 92.625 145.515625 93.125 147.203125 C 93.476562 148.398438 93.882812 149.566406 94.328125 150.679688 C 95.183594 152.949219 96.21875 155.15625 97.5 157.429688 C 102.289062 165.203125 108.429688 169.390625 115.75 169.875 C 116.035156 168.707031 116.316406 167.574219 116.601562 166.4375 C 117.085938 164.484375 117.660156 162.433594 118.390625 160.03125 C 112.628906 160.019531 107.683594 157.097656 103.691406 151.324219 Z M 227.472656 250.421875 C 231.121094 252.035156 235.125 254.359375 239.6875 257.527344 L 240.070312 257.800781 C 240.789062 258.316406 241.566406 258.875 242.378906 259.535156 C 245.929688 262.421875 250.414062 266.527344 255.710938 271.742188 C 269.640625 286.34375 283.726562 292.722656 297.644531 290.753906 C 297.097656 285.207031 296.789062 279.691406 296.695312 273.910156 C 296.609375 270.085938 296.640625 266.121094 296.785156 261.796875 C 297.089844 252.648438 298.066406 243.21875 299.679688 233.765625 C 299.929688 232.261719 300.214844 230.757812 300.511719 229.25 C 299.6875 228.808594 298.921875 228.207031 298.183594 227.425781 C 297.335938 226.53125 296.699219 225.519531 296.234375 224.332031 C 296.097656 223.972656 295.945312 223.566406 295.890625 223.1875 C 295.515625 221.660156 295.699219 220.160156 296.4375 218.777344 C 296.828125 218.003906 297.417969 217.253906 298.195312 216.554688 C 297.972656 215.910156 297.867188 215.3125 297.867188 214.683594 C 297.867188 214.421875 297.871094 214.214844 297.921875 213.953125 C 297.914062 213.851562 297.953125 213.628906 298.027344 213.398438 C 298.1875 212.5 298.585938 211.742188 299.222656 211.128906 C 298.503906 210.078125 298.140625 208.890625 298.140625 207.601562 L 298.140625 207.328125 C 298.191406 206.722656 298.347656 206.234375 298.621094 205.804688 C 299.601562 203.988281 302.324219 202.929688 306.9375 202.597656 L 307.308594 202.597656 L 308.261719 199.953125 C 308.265625 199.941406 308.265625 199.933594 308.273438 199.921875 L 308.765625 198.667969 C 308.777344 198.640625 308.789062 198.613281 308.804688 198.585938 C 308.820312 198.546875 308.839844 198.496094 308.871094 198.445312 L 309.253906 197.335938 C 309.265625 197.300781 309.28125 197.269531 309.300781 197.234375 C 309.316406 197.195312 309.335938 197.144531 309.367188 197.085938 C 309.523438 196.664062 309.644531 196.316406 309.734375 196.042969 C 309.046875 195.921875 308.363281 195.769531 307.664062 195.585938 C 307.652344 195.585938 307.640625 195.582031 307.632812 195.578125 C 307.445312 195.523438 307.257812 195.476562 307.074219 195.429688 C 306.8125 195.363281 306.558594 195.296875 306.320312 195.214844 C 303.496094 194.382812 300.808594 193.226562 298.339844 191.792969 C 298.339844 191.792969 298.339844 191.792969 298.335938 191.789062 C 297.472656 191.292969 296.601562 190.738281 295.738281 190.148438 C 293.386719 188.5625 291.179688 186.683594 288.992188 184.402344 C 284.667969 179.894531 280.078125 173.105469 275.34375 164.21875 C 270.636719 155.417969 267.585938 149.800781 265.75 146.550781 L 265.339844 145.835938 C 264.710938 144.742188 264.253906 143.949219 263.964844 143.515625 C 260.777344 138.621094 257.367188 134.875 253.824219 132.371094 C 235.167969 167.027344 225.9375 201.054688 226.382812 233.527344 C 226.425781 235.921875 226.511719 238.230469 226.652344 240.585938 C 226.839844 244.105469 227.105469 247.328125 227.472656 250.421875 Z M 113.257812 248.578125 C 121.175781 253.859375 129.238281 258.125 137.230469 261.261719 C 166.179688 272.5625 196.328125 269.910156 226.835938 253.378906 C 226.789062 253.007812 226.746094 252.636719 226.703125 252.261719 C 226.644531 251.785156 226.589844 251.308594 226.523438 250.839844 C 226.519531 250.832031 226.519531 250.820312 226.519531 250.8125 C 226.136719 247.613281 225.855469 244.285156 225.660156 240.640625 C 225.523438 238.273438 225.4375 235.953125 225.390625 233.542969 C 224.941406 200.75 234.300781 166.390625 253.210938 131.417969 C 253.214844 131.417969 253.214844 131.414062 253.214844 131.410156 C 254 129.929688 254.832031 128.378906 255.714844 126.816406 C 252.785156 128.242188 247.574219 128.75 239.925781 128.355469 C 228.878906 127.859375 215.800781 125.578125 201.054688 121.574219 C 187.226562 117.855469 175.320312 113.535156 165.675781 108.730469 C 165.367188 108.566406 165.078125 108.421875 164.785156 108.273438 C 164.492188 108.125 164.195312 107.980469 163.902344 107.820312 C 163.671875 107.683594 163.503906 107.597656 163.335938 107.515625 C 155 103.105469 150.671875 99.402344 150.191406 96.246094 C 136.320312 116.617188 126.011719 137.941406 119.542969 159.65625 C 119.539062 159.664062 119.535156 159.671875 119.53125 159.679688 C 118.714844 162.34375 118.085938 164.570312 117.5625 166.679688 C 117.246094 167.9375 116.933594 169.195312 116.617188 170.5 C 116.617188 170.507812 116.613281 170.511719 116.613281 170.519531 C 113.835938 181.949219 112.082031 193.917969 111.402344 206.09375 C 110.597656 219.945312 111.222656 234.238281 113.257812 248.578125 Z M 301.292969 228.539062 C 302.480469 229.109375 303.75 229.386719 305.167969 229.386719 C 307.75 229.386719 309.902344 228.945312 311.757812 228.039062 C 311.921875 227.980469 311.988281 227.945312 312.058594 227.910156 C 313.316406 227.054688 314.199219 225.960938 314.566406 224.769531 C 314.753906 224.121094 314.796875 223.402344 314.691406 222.632812 C 313.035156 223.640625 311.015625 224.152344 308.683594 224.152344 C 306.257812 224.152344 303.824219 223.09375 301.460938 221.007812 C 300.132812 219.835938 299.167969 218.671875 298.59375 217.539062 C 298.039062 218.082031 297.609375 218.648438 297.316406 219.234375 C 296.683594 220.421875 296.535156 221.648438 296.859375 223 C 296.910156 223.3125 297.042969 223.667969 297.160156 223.976562 C 297.574219 225.039062 298.144531 225.945312 298.902344 226.742188 C 299.664062 227.550781 300.417969 228.117188 301.269531 228.527344 C 301.277344 228.53125 301.285156 228.53125 301.292969 228.539062 Z M 299.257812 216.609375 C 299.722656 217.773438 300.683594 219.003906 302.113281 220.265625 C 304.292969 222.1875 306.503906 223.160156 308.683594 223.160156 C 311.097656 223.160156 313.128906 222.578125 314.71875 221.429688 L 314.785156 221.363281 C 316.546875 219.984375 317.386719 218.105469 317.386719 215.582031 L 317.386719 215.132812 C 317.351562 214.320312 317.285156 213.285156 317.058594 212.695312 C 316.808594 211.957031 316.429688 211.382812 315.863281 210.898438 C 315.273438 211.453125 314.488281 212.019531 313.574219 212.539062 C 311.101562 213.960938 308.578125 214.679688 306.070312 214.679688 C 303.769531 214.679688 301.832031 213.933594 300.316406 212.46875 C 300.132812 212.28125 299.972656 212.109375 299.824219 211.929688 C 299.382812 212.382812 299.113281 212.9375 298.984375 213.640625 C 298.925781 213.835938 298.902344 213.957031 298.902344 214.050781 C 298.855469 214.335938 298.859375 214.492188 298.859375 214.683594 C 298.859375 215.277344 298.976562 215.847656 299.230469 216.484375 C 299.242188 216.523438 299.253906 216.566406 299.257812 216.609375 Z M 300.296875 210.921875 C 300.515625 211.226562 300.730469 211.476562 301.011719 211.761719 C 302.351562 213.058594 304.003906 213.6875 306.070312 213.6875 C 308.402344 213.6875 310.761719 213.015625 313.082031 211.679688 C 314.003906 211.152344 314.78125 210.589844 315.320312 210.046875 L 315.457031 209.910156 C 315.445312 209.910156 315.488281 209.851562 315.53125 209.800781 C 315.539062 209.78125 315.605469 209.691406 315.617188 209.675781 C 316.21875 208.75 316.503906 207.792969 316.445312 206.902344 C 316.410156 206.800781 316.398438 206.707031 316.394531 206.628906 C 316.378906 206.585938 316.359375 206.542969 316.355469 206.519531 C 316.214844 205.757812 316.035156 205.203125 315.777344 204.726562 C 314.714844 202.679688 312.511719 201.355469 309.050781 200.675781 L 308.351562 202.597656 C 309.195312 202.597656 309.929688 202.597656 310.523438 202.640625 C 310.792969 202.660156 311 202.894531 310.980469 203.167969 C 310.964844 203.441406 310.726562 203.652344 310.453125 203.628906 C 309.839844 203.585938 309.03125 203.585938 308.097656 203.585938 L 307.605469 203.585938 C 307.601562 203.585938 307.597656 203.585938 307.597656 203.585938 L 306.972656 203.585938 C 302.820312 203.886719 300.285156 204.800781 299.472656 206.304688 C 299.269531 206.632812 299.164062 206.964844 299.125 207.375 L 299.128906 207.601562 C 299.128906 208.820312 299.515625 209.929688 300.28125 210.898438 C 300.285156 210.90625 300.289062 210.910156 300.292969 210.914062 L 300.292969 210.917969 L 300.296875 210.917969 C 300.296875 210.921875 300.296875 210.921875 300.296875 210.921875 Z M 299.058594 191.0625 C 301.398438 192.402344 303.9375 193.480469 306.617188 194.273438 C 306.851562 194.351562 307.082031 194.40625 307.320312 194.46875 C 307.328125 194.46875 307.335938 194.472656 307.347656 194.476562 C 307.445312 193.394531 307.46875 192.570312 307.46875 192.039062 C 307.46875 190.765625 307.007812 189.777344 306.09375 189.101562 C 305.316406 188.527344 304.441406 188.25 303.410156 188.25 C 302.628906 188.25 301.671875 188.605469 300.566406 189.304688 C 299.28125 190.097656 299.070312 190.71875 299.058594 191.0625 Z M 151.226562 94.984375 C 150.457031 97.898438 154.683594 101.816406 163.78125 106.632812 C 163.96875 106.726562 164.15625 106.820312 164.390625 106.960938 C 164.65625 107.101562 164.941406 107.246094 165.226562 107.386719 C 165.527344 107.539062 165.828125 107.6875 166.128906 107.851562 C 175.703125 112.617188 187.546875 116.917969 201.3125 120.617188 C 215.988281 124.601562 228.996094 126.871094 239.972656 127.367188 C 251.753906 127.972656 255.710938 126.238281 256.953125 124.671875 C 256.960938 124.664062 256.964844 124.660156 256.972656 124.652344 C 257.152344 124.433594 257.265625 124.210938 257.386719 123.921875 C 257.421875 123.789062 257.4375 123.722656 257.464844 123.644531 C 257.996094 121.617188 256.144531 117.863281 244.226562 111.65625 C 234.417969 106.59375 222.015625 102.007812 207.367188 98.03125 C 192.703125 94.0625 179.667969 91.777344 168.617188 91.238281 C 159.109375 90.792969 153.410156 91.746094 151.6875 94.0625 C 151.6875 94.070312 151.667969 94.117188 151.640625 94.167969 C 151.605469 94.242188 151.550781 94.300781 151.488281 94.347656 C 151.382812 94.53125 151.296875 94.742188 151.230469 94.972656 C 151.226562 94.976562 151.226562 94.980469 151.226562 94.984375 " fill-opacity="1" fill-rule="nonzero"/></g><g clip-path="url(#fdd9a56921)"><path fill="#4d5364" d="M 89.261719 136.359375 C 88.769531 136.359375 88.355469 136.222656 88.007812 135.953125 C 87.378906 135.464844 87.03125 134.585938 86.945312 133.277344 C 84.257812 135.472656 81.472656 136.300781 78.460938 135.792969 C 76.589844 135.425781 74.847656 134.886719 73.128906 134.152344 C 73.070312 134.183594 73.003906 134.214844 72.929688 134.238281 C 70.90625 135.5625 68.257812 135.953125 64.9375 135.386719 C 63.671875 135.003906 62.625 134.507812 61.675781 133.863281 C 61.359375 133.597656 61.074219 133.320312 60.796875 133.035156 C 58.070312 130.363281 56.855469 126.949219 57.179688 122.90625 C 57.3125 121.96875 57.601562 121.113281 58.09375 120.1875 C 58.4375 119.558594 58.773438 119.066406 59.152344 118.644531 C 59.21875 118.578125 59.300781 118.511719 59.390625 118.441406 C 58.511719 116.480469 58.132812 114.332031 58.261719 112.046875 C 58.308594 111.066406 58.492188 110.117188 58.828125 109.160156 C 58.925781 108.871094 59.023438 108.582031 59.167969 108.289062 C 59.457031 107.671875 59.792969 106.992188 60.230469 106.304688 C 60.882812 105.351562 61.625 104.652344 62.496094 104.15625 C 62.050781 101.207031 62.335938 98.566406 63.351562 96.3125 C 63.554688 95.863281 63.792969 95.371094 64.152344 94.804688 C 64.625 93.992188 65.28125 93.164062 66.160156 92.285156 C 66.332031 92.160156 66.398438 92.09375 66.472656 92.015625 C 67.257812 91.328125 68.125 90.796875 69.074219 90.417969 C 72.609375 89.003906 76.855469 89.851562 81.695312 92.941406 L 81.90625 93.070312 C 82.792969 93.640625 83.570312 94.308594 84.234375 95.058594 C 85.097656 95.96875 85.980469 96.558594 86.839844 96.804688 C 87.378906 96.964844 87.941406 96.976562 88.515625 96.84375 C 88.640625 96.066406 88.761719 95.3125 88.921875 94.5625 C 89.351562 92.160156 89.929688 90.257812 90.675781 88.761719 C 92.714844 84.355469 95.90625 82.046875 100.160156 81.902344 C 103.527344 81.902344 106.054688 82.953125 107.6875 85.023438 C 107.949219 85.46875 108.082031 85.753906 108.175781 86.03125 C 109.398438 89.1875 108.859375 92.007812 106.605469 94.167969 C 106.335938 94.394531 106.050781 94.636719 105.761719 94.882812 C 105.757812 94.886719 105.671875 94.960938 105.667969 94.964844 C 105.023438 95.46875 104.476562 96.085938 104.074219 96.566406 C 102.261719 98.851562 101.25 101.351562 101.078125 103.988281 C 100.988281 106.390625 100.765625 108.550781 100.394531 110.585938 C 99.847656 114.648438 98.234375 118.316406 95.597656 121.457031 C 95.523438 121.539062 95.453125 121.605469 95.4375 121.636719 C 95.421875 121.65625 95.402344 121.6875 95.382812 121.714844 C 97.097656 123.332031 97.710938 125.21875 97.1875 127.304688 L 97.066406 127.710938 C 97.0625 127.757812 97.054688 127.800781 97.039062 127.847656 C 96.789062 128.542969 96.457031 129.238281 96.050781 129.917969 L 95.929688 130.128906 C 95.800781 130.347656 95.632812 130.636719 95.421875 130.972656 L 95.195312 131.359375 C 95.132812 131.464844 95.082031 131.566406 95.035156 131.65625 C 94.976562 131.78125 94.917969 131.886719 94.867188 131.96875 C 93.835938 133.707031 92.5625 135 91.101562 135.796875 C 91.074219 135.820312 91.042969 135.84375 91.011719 135.863281 C 90.8125 135.984375 90.578125 136.074219 90.363281 136.15625 L 90.222656 136.214844 C 89.875 136.3125 89.554688 136.359375 89.261719 136.359375 Z M 87.917969 132.324219 C 87.917969 132.363281 87.917969 132.421875 87.917969 132.425781 C 87.894531 133.851562 88.132812 134.800781 88.613281 135.171875 C 88.90625 135.398438 89.328125 135.433594 89.90625 135.277344 L 90.007812 135.234375 C 90.160156 135.175781 90.320312 135.117188 90.464844 135.035156 C 90.503906 135.003906 90.542969 134.96875 90.570312 134.957031 C 91.898438 134.25 93.0625 133.066406 94.027344 131.441406 C 94.078125 131.367188 94.109375 131.292969 94.152344 131.214844 C 94.207031 131.101562 94.269531 130.976562 94.347656 130.851562 L 94.496094 130.597656 C 94.503906 130.578125 94.515625 130.558594 94.523438 130.539062 L 94.660156 130.3125 C 94.675781 130.289062 94.691406 130.269531 94.707031 130.246094 C 94.855469 130.007812 94.976562 129.796875 95.070312 129.632812 L 95.199219 129.410156 C 95.558594 128.808594 95.855469 128.195312 96.078125 127.585938 C 96.082031 127.550781 96.089844 127.515625 96.101562 127.476562 L 96.238281 127.027344 C 96.65625 125.351562 96.171875 123.851562 94.75 122.480469 C 94.730469 122.5 94.714844 122.523438 94.695312 122.542969 C 94.582031 122.679688 94.464844 122.816406 94.363281 122.964844 C 94.199219 123.1875 93.894531 123.238281 93.671875 123.078125 C 93.449219 122.917969 93.394531 122.609375 93.554688 122.386719 C 93.675781 122.21875 93.808594 122.0625 93.941406 121.902344 C 94.054688 121.769531 94.167969 121.636719 94.269531 121.492188 C 94.28125 121.476562 94.289062 121.464844 94.300781 121.453125 C 94.304688 121.445312 94.3125 121.441406 94.316406 121.4375 C 94.34375 121.398438 94.453125 121.253906 94.46875 121.238281 L 94.597656 121.105469 C 94.675781 120.984375 94.777344 120.882812 94.871094 120.789062 C 97.351562 117.824219 98.890625 114.328125 99.417969 110.429688 C 99.78125 108.421875 100 106.304688 100.089844 103.9375 C 100.277344 101.082031 101.359375 98.394531 103.304688 95.9375 C 103.75 95.410156 104.34375 94.746094 105.054688 94.1875 C 105.410156 93.882812 105.695312 93.636719 105.945312 93.429688 C 107.890625 91.566406 108.335938 89.179688 107.246094 86.367188 C 107.164062 86.132812 107.054688 85.902344 106.867188 85.574219 C 105.472656 83.816406 103.207031 82.894531 100.175781 82.894531 C 96.289062 83.023438 93.46875 85.085938 91.566406 89.191406 C 90.855469 90.617188 90.3125 92.429688 89.894531 94.753906 C 89.714844 95.605469 89.582031 96.4375 89.449219 97.273438 C 89.449219 97.285156 89.445312 97.296875 89.445312 97.308594 C 89.203125 99.324219 88.601562 100.601562 87.65625 101.101562 C 87.414062 101.230469 87.113281 101.136719 86.984375 100.894531 C 86.855469 100.652344 86.949219 100.355469 87.191406 100.226562 C 87.722656 99.945312 88.128906 99.121094 88.359375 97.882812 C 87.746094 97.96875 87.144531 97.929688 86.5625 97.757812 C 85.535156 97.464844 84.503906 96.78125 83.503906 95.726562 C 82.886719 95.03125 82.179688 94.425781 81.382812 93.910156 L 81.171875 93.785156 C 76.609375 90.867188 72.664062 90.042969 69.441406 91.335938 C 68.59375 91.675781 67.824219 92.148438 67.148438 92.738281 C 67.082031 92.8125 66.960938 92.929688 66.78125 93.050781 C 66.046875 93.800781 65.4375 94.5625 65 95.320312 C 64.664062 95.851562 64.441406 96.304688 64.253906 96.71875 C 63.28125 98.878906 63.039062 101.4375 63.523438 104.324219 C 63.527344 104.332031 63.527344 104.335938 63.527344 104.34375 C 63.527344 104.347656 63.527344 104.347656 63.527344 104.347656 C 63.527344 104.347656 63.527344 104.351562 63.53125 104.351562 L 63.53125 104.355469 C 63.53125 104.375 63.53125 104.398438 63.53125 104.417969 L 63.53125 104.453125 C 63.554688 104.496094 63.566406 104.542969 63.574219 104.589844 C 63.601562 104.671875 63.617188 104.75 63.621094 104.8125 C 64.917969 108.457031 66.789062 111.140625 69.179688 112.796875 C 70.394531 113.578125 71.59375 114.085938 72.730469 114.292969 C 72.746094 114.285156 72.898438 114.285156 73.109375 114.355469 C 73.164062 114.359375 73.289062 114.371094 73.421875 114.378906 C 73.566406 114.390625 73.71875 114.402344 73.882812 114.425781 C 75.089844 114.46875 76.070312 114.363281 76.898438 114.085938 L 77.054688 114.019531 C 77.203125 113.957031 77.339844 113.898438 77.476562 113.863281 C 78.527344 113.390625 79.347656 112.765625 80.050781 111.898438 C 80.484375 111.386719 80.875 110.808594 81.21875 110.171875 C 82.085938 108.882812 82.320312 107.453125 81.9375 105.878906 C 81.5625 104.371094 80.820312 103.054688 79.671875 101.863281 C 78.34375 100.582031 77.277344 99.148438 76.433594 97.507812 C 76.3125 97.308594 76.21875 97.121094 76.128906 96.9375 C 76.007812 96.695312 76.101562 96.386719 76.34375 96.265625 C 76.585938 96.140625 76.878906 96.226562 77 96.472656 L 77.015625 96.496094 C 77.09375 96.660156 77.175781 96.824219 77.300781 97.027344 C 78.109375 98.601562 79.109375 99.945312 80.375 101.164062 C 81.640625 102.480469 82.484375 103.980469 82.898438 105.640625 C 83.351562 107.5 83.070312 109.199219 82.0625 110.683594 C 81.714844 111.339844 81.285156 111.972656 80.8125 112.53125 C 80.132812 113.375 79.351562 114.019531 78.386719 114.523438 C 79.367188 116.027344 79.644531 117.800781 79.207031 119.804688 C 79.15625 120.058594 79.097656 120.277344 78.988281 120.503906 C 78.914062 120.734375 78.816406 121.023438 78.671875 121.316406 C 78.621094 121.421875 78.570312 121.515625 78.503906 121.601562 C 78.019531 122.503906 77.304688 123.230469 76.320312 123.820312 L 75.808594 124.128906 C 76.691406 126.285156 76.707031 128.535156 75.851562 130.832031 C 75.839844 130.863281 75.824219 130.894531 75.804688 130.921875 C 75.765625 131.03125 75.714844 131.117188 75.679688 131.179688 C 75.667969 131.210938 75.65625 131.242188 75.640625 131.269531 C 75.628906 131.320312 75.613281 131.363281 75.59375 131.398438 C 75.121094 132.222656 74.597656 132.894531 74.003906 133.445312 C 75.5 134.050781 77.023438 134.5 78.636719 134.816406 C 81.417969 135.285156 84.015625 134.46875 86.5625 132.308594 C 86.726562 132.183594 86.828125 132.082031 86.9375 131.9375 L 87.09375 131.777344 L 87.84375 130.808594 C 88.007812 130.589844 88.320312 130.550781 88.535156 130.714844 C 88.753906 130.882812 88.792969 131.195312 88.625 131.410156 Z M 59.84375 119.359375 C 59.542969 119.699219 59.257812 120.117188 58.964844 120.65625 C 58.53125 121.476562 58.277344 122.226562 58.164062 123.015625 C 57.867188 126.722656 58.984375 129.867188 61.492188 132.332031 C 61.753906 132.597656 62.011719 132.855469 62.273438 133.074219 C 63.101562 133.636719 64.058594 134.085938 65.164062 134.421875 C 68.167969 134.933594 70.589844 134.585938 72.507812 133.351562 C 72.636719 133.292969 72.683594 133.257812 72.726562 133.226562 L 72.859375 133.128906 C 73.589844 132.550781 74.167969 131.875 74.679688 131 C 74.683594 130.984375 74.6875 130.96875 74.691406 130.953125 C 74.734375 130.832031 74.789062 130.742188 74.828125 130.671875 C 74.828125 130.535156 74.886719 130.414062 74.980469 130.328125 C 75.691406 128.324219 75.671875 126.433594 74.917969 124.566406 C 73.511719 125.15625 72.03125 125.519531 70.515625 125.648438 C 68.648438 125.601562 66.976562 125.21875 65.355469 124.476562 C 64.007812 123.894531 62.769531 123.019531 61.6875 121.886719 C 60.953125 121.117188 60.335938 120.265625 59.84375 119.359375 Z M 60.46875 118.40625 C 60.953125 119.417969 61.605469 120.363281 62.40625 121.207031 C 63.394531 122.238281 64.523438 123.035156 65.757812 123.570312 C 67.265625 124.261719 68.808594 124.617188 70.488281 124.660156 C 71.933594 124.535156 73.390625 124.160156 74.773438 123.550781 C 74.847656 123.464844 74.949219 123.410156 75.070312 123.398438 C 75.101562 123.386719 75.132812 123.378906 75.140625 123.375 C 75.144531 123.375 75.144531 123.375 75.144531 123.375 C 75.148438 123.375 75.132812 123.378906 75.105469 123.398438 C 75.109375 123.394531 75.113281 123.394531 75.117188 123.394531 L 75.121094 123.394531 L 75.808594 122.972656 C 76.652344 122.464844 77.253906 121.851562 77.652344 121.089844 C 77.675781 121.046875 77.707031 121.007812 77.738281 120.972656 C 77.742188 120.964844 77.761719 120.921875 77.785156 120.875 C 77.910156 120.625 77.992188 120.375 78.074219 120.128906 C 78.164062 119.933594 78.199219 119.796875 78.238281 119.601562 C 78.628906 117.800781 78.367188 116.230469 77.464844 114.921875 C 77.457031 114.925781 77.449219 114.929688 77.441406 114.933594 L 77.238281 115.015625 C 76.269531 115.339844 75.179688 115.464844 73.792969 115.410156 C 73.601562 115.386719 73.46875 115.375 73.34375 115.367188 C 73.183594 115.355469 73.027344 115.339844 72.875 115.316406 C 72.738281 115.277344 72.710938 115.277344 72.636719 115.277344 C 71.285156 115.035156 69.96875 114.480469 68.628906 113.621094 C 66.058594 111.84375 64.070312 109.011719 62.703125 105.1875 C 62.085938 105.59375 61.542969 106.144531 61.058594 106.851562 C 60.65625 107.476562 60.339844 108.121094 60.0625 108.722656 C 59.933594 108.980469 59.851562 109.230469 59.769531 109.476562 C 59.460938 110.355469 59.292969 111.210938 59.25 112.097656 C 59.125 114.367188 59.53125 116.480469 60.460938 118.394531 C 60.460938 118.398438 60.464844 118.402344 60.46875 118.40625 Z M 88.402344 126.738281 C 87.480469 126.738281 86.566406 126.488281 85.65625 125.996094 C 84.183594 125.238281 83.066406 124.085938 82.332031 122.574219 C 82.214844 122.328125 82.316406 122.03125 82.5625 121.914062 C 82.808594 121.796875 83.105469 121.898438 83.226562 122.144531 C 83.859375 123.457031 84.832031 124.457031 86.117188 125.121094 C 87.640625 125.945312 89.152344 125.941406 90.757812 125.121094 C 91 124.992188 91.300781 125.089844 91.425781 125.335938 C 91.550781 125.578125 91.453125 125.875 91.210938 126 C 90.253906 126.492188 89.324219 126.738281 88.402344 126.738281 " fill-opacity="1" fill-rule="nonzero"/></g><path fill="#959bac" d="M 124.199219 238.765625 C 123.9375 238.765625 123.714844 238.554688 123.707031 238.285156 C 123.476562 231.464844 123.492188 224.878906 123.753906 218.71875 L 123.886719 215.339844 C 123.898438 215.0625 124.121094 214.867188 124.402344 214.863281 C 124.675781 214.875 124.886719 215.105469 124.875 215.378906 L 124.742188 218.757812 C 124.480469 224.894531 124.464844 231.453125 124.695312 238.253906 C 124.707031 238.527344 124.492188 238.753906 124.21875 238.765625 C 124.214844 238.765625 124.207031 238.765625 124.199219 238.765625 Z M 125.148438 199.839844 C 125.132812 199.839844 125.117188 199.839844 125.101562 199.839844 C 124.828125 199.8125 124.628906 199.570312 124.65625 199.300781 C 125.367188 191.863281 126.492188 184.410156 128 177.148438 C 128.054688 176.878906 128.3125 176.710938 128.585938 176.761719 C 128.851562 176.820312 129.023438 177.082031 128.96875 177.347656 C 127.46875 184.578125 126.351562 191.992188 125.640625 199.394531 C 125.617188 199.652344 125.402344 199.839844 125.148438 199.839844 Z M 131.863281 163.039062 C 131.820312 163.039062 131.773438 163.035156 131.730469 163.023438 C 131.46875 162.945312 131.3125 162.671875 131.386719 162.410156 C 133.058594 156.464844 135.097656 150.441406 137.445312 144.503906 C 137.574219 144.105469 137.714844 143.734375 137.902344 143.3125 C 138.011719 143.058594 138.304688 142.953125 138.554688 143.058594 C 138.804688 143.167969 138.917969 143.460938 138.808594 143.710938 C 138.632812 144.101562 138.503906 144.449219 138.375 144.839844 C 136.03125 150.773438 134.003906 156.765625 132.339844 162.679688 C 132.28125 162.898438 132.082031 163.039062 131.863281 163.039062 Z M 142.953125 131.738281 C 142.882812 131.738281 142.808594 131.726562 142.742188 131.691406 C 142.496094 131.574219 142.386719 131.28125 142.503906 131.03125 C 145.449219 124.742188 148.882812 118.371094 152.714844 112.089844 C 152.859375 111.855469 153.164062 111.78125 153.398438 111.921875 C 153.628906 112.066406 153.703125 112.371094 153.5625 112.605469 C 149.75 118.855469 146.328125 125.199219 143.398438 131.453125 C 143.316406 131.632812 143.136719 131.738281 142.953125 131.738281 " fill-opacity="1" fill-rule="nonzero"/><path fill="#312617" d="M 227.453125 118.980469 C 226.3125 118.980469 224.984375 118.917969 223.503906 118.789062 C 222.089844 118.675781 220.652344 118.5 219.132812 118.308594 L 218.238281 118.199219 C 217.507812 118.058594 216.898438 117.96875 216.246094 117.882812 C 212.183594 117.199219 207.738281 116.1875 202.996094 114.878906 C 197.417969 113.386719 192.164062 111.675781 187.390625 109.792969 L 186.390625 109.375 C 185.558594 109.027344 184.75 108.691406 183.960938 108.328125 C 183.820312 108.257812 183.703125 108.210938 183.589844 108.164062 C 183.433594 108.097656 183.277344 108.035156 183.121094 107.957031 C 177.101562 105.097656 174.773438 103 175.351562 100.9375 C 175.953125 98.867188 179.246094 98.628906 181.667969 98.628906 C 182.804688 98.628906 184.121094 98.695312 185.585938 98.820312 C 187.375 98.972656 189.003906 99.167969 190.566406 99.414062 C 195.335938 100.109375 200.609375 101.226562 206.21875 102.730469 C 211.546875 104.164062 216.375 105.722656 220.566406 107.363281 C 222.226562 107.996094 223.933594 108.722656 225.9375 109.640625 C 232.054688 112.519531 234.410156 114.609375 233.824219 116.636719 C 233.230469 118.738281 229.90625 118.980469 227.453125 118.980469 Z M 181.667969 100.609375 C 177.621094 100.609375 177.257812 101.472656 177.257812 101.480469 C 177.253906 101.488281 176.964844 102.84375 183.988281 106.175781 C 184.121094 106.238281 184.234375 106.289062 184.351562 106.335938 C 184.503906 106.402344 184.660156 106.464844 184.816406 106.542969 C 185.550781 106.878906 186.339844 107.207031 187.152344 107.546875 L 188.140625 107.960938 C 192.820312 109.804688 198 111.492188 203.515625 112.96875 C 208.199219 114.261719 212.578125 115.257812 216.539062 115.925781 C 217.203125 116.011719 217.855469 116.105469 218.554688 116.246094 L 219.375 116.34375 C 220.875 116.53125 222.292969 116.707031 223.667969 116.816406 C 225.097656 116.9375 226.367188 117 227.453125 117 C 231.617188 117 231.914062 116.101562 231.917969 116.089844 C 231.925781 116.070312 232.09375 114.726562 225.105469 111.4375 C 223.148438 110.539062 221.480469 109.832031 219.855469 109.214844 C 215.71875 107.59375 210.964844 106.058594 205.707031 104.644531 C 200.167969 103.160156 194.976562 102.058594 190.269531 101.375 C 188.742188 101.132812 187.160156 100.945312 185.417969 100.792969 C 184.007812 100.671875 182.746094 100.609375 181.667969 100.609375 " fill-opacity="1" fill-rule="nonzero"/><path fill="#959bac" d="M 234.449219 249.996094 C 234.183594 249.996094 233.964844 249.785156 233.957031 249.515625 C 233.824219 245.171875 233.855469 240.625 234.046875 235.992188 C 234.054688 235.722656 234.308594 235.507812 234.558594 235.519531 C 234.832031 235.53125 235.046875 235.761719 235.035156 236.035156 C 234.847656 240.640625 234.816406 245.167969 234.945312 249.484375 C 234.953125 249.757812 234.738281 249.988281 234.464844 249.996094 C 234.457031 249.996094 234.453125 249.996094 234.449219 249.996094 Z M 235.125 228.933594 C 235.117188 228.933594 235.109375 228.933594 235.101562 228.933594 C 234.828125 228.917969 234.617188 228.6875 234.632812 228.410156 C 234.933594 222.515625 235.539062 216.382812 236.4375 210.191406 C 236.476562 209.917969 236.730469 209.730469 237 209.769531 C 237.269531 209.8125 237.457031 210.0625 237.417969 210.332031 C 236.523438 216.496094 235.921875 222.597656 235.621094 228.460938 C 235.605469 228.726562 235.386719 228.933594 235.125 228.933594 Z M 238.820312 202.503906 C 238.792969 202.503906 238.761719 202.5 238.730469 202.496094 C 238.460938 202.445312 238.285156 202.1875 238.335938 201.917969 C 239.722656 194.433594 241.59375 187.070312 243.894531 180.023438 C 243.980469 179.765625 244.257812 179.625 244.519531 179.707031 C 244.78125 179.792969 244.917969 180.074219 244.835938 180.332031 C 242.546875 187.335938 240.6875 194.65625 239.308594 202.097656 C 239.265625 202.335938 239.058594 202.503906 238.820312 202.503906 Z M 246.617188 173.953125 C 246.5625 173.953125 246.5 173.945312 246.445312 173.921875 C 246.1875 173.828125 246.058594 173.542969 246.15625 173.285156 C 248.90625 165.957031 252.222656 158.652344 256.007812 151.574219 C 256.136719 151.335938 256.433594 151.242188 256.679688 151.371094 C 256.917969 151.5 257.011719 151.800781 256.878906 152.042969 C 253.117188 159.082031 249.820312 166.347656 247.082031 173.632812 C 247.007812 173.832031 246.820312 173.953125 246.617188 173.953125 " fill-opacity="1" fill-rule="nonzero"/><path fill="#fefefe" d="M 243.824219 141.84375 C 245.761719 138.097656 246.753906 135.890625 246.753906 135.121094 C 246.753906 131.46875 245.71875 129.710938 243.597656 129.890625 C 241.480469 130.070312 238.910156 132.101562 235.800781 135.980469 C 228.046875 145.769531 221.695312 160.695312 216.734375 180.675781 C 214.390625 190.507812 212.90625 199.84375 212.320312 208.726562 C 211.460938 212.652344 210.921875 216.847656 210.652344 221.3125 C 210.335938 225.777344 209.027344 229.070312 206.683594 231.28125 C 204.296875 233.445312 202.71875 234.75 201.863281 235.15625 C 201.007812 235.5625 197.761719 236.960938 192.125 239.398438 C 195.191406 240.792969 198.933594 241.109375 203.304688 240.34375 C 207.675781 239.578125 210.878906 238.902344 212.949219 238.316406 C 214.976562 237.730469 216.421875 236.644531 217.230469 235.066406 C 218.042969 233.578125 218.539062 231.097656 218.71875 227.714844 C 218.855469 225.730469 218.898438 221.3125 218.898438 214.414062 C 218.898438 210.757812 219.441406 206.335938 220.566406 201.148438 C 222.011719 195.242188 223.046875 190.820312 223.675781 187.980469 C 225.617188 179.324219 230.078125 168.226562 237.0625 154.652344 C 238.777344 151.3125 241.03125 147.027344 243.824219 141.84375 " fill-opacity="1" fill-rule="nonzero"/><path fill="#ffffff" d="M 179.867188 141.527344 C 179.820312 141.480469 179.730469 141.480469 179.6875 141.4375 C 178.46875 140.488281 177.070312 139.859375 175.402344 139.585938 C 172.566406 139.136719 169.949219 139.8125 167.5625 141.570312 C 165.621094 142.96875 164.316406 144.820312 163.6875 147.074219 C 163.640625 147.164062 163.59375 147.253906 163.550781 147.34375 C 163.460938 147.75 163.371094 148.203125 163.28125 148.652344 C 163.011719 150.230469 163.054688 151.765625 163.460938 153.253906 C 164.542969 156.90625 166.75 159.34375 170.132812 160.648438 C 170.714844 160.828125 171.257812 160.964844 171.84375 161.054688 C 173.015625 161.28125 174.140625 161.28125 175.226562 161.101562 C 175.269531 161.054688 175.359375 161.054688 175.402344 161.054688 C 178.246094 160.605469 180.542969 159.027344 182.300781 156.273438 C 182.480469 159.746094 183.5625 162.453125 185.5 164.300781 C 186.71875 165.519531 188.292969 166.378906 190.234375 166.875 C 190.636719 166.964844 191.089844 167.054688 191.539062 167.101562 C 191.585938 167.101562 191.675781 167.101562 191.765625 167.101562 C 195.597656 167.417969 198.933594 165.792969 201.726562 162.230469 C 202.175781 161.550781 202.628906 160.828125 203.078125 160.0625 C 203.210938 159.839844 203.304688 159.613281 203.394531 159.386719 C 203.441406 159.34375 203.441406 159.34375 203.441406 159.296875 C 204.65625 156.320312 204.835938 153.433594 204.070312 150.59375 C 203.210938 147.480469 201.457031 145.316406 198.839844 144.140625 C 197.667969 143.554688 196.453125 143.285156 195.144531 143.238281 C 193.65625 143.238281 192.082031 143.648438 190.460938 144.414062 C 187.800781 145.632812 185.863281 147.34375 184.734375 149.554688 L 184.597656 149.78125 C 184.105469 150.59375 183.789062 151.222656 183.742188 151.628906 C 183.789062 151.222656 184.105469 150.59375 184.597656 149.78125 L 184.734375 149.554688 C 184.238281 146.261719 182.617188 143.601562 179.910156 141.570312 L 179.867188 141.527344 " fill-opacity="1" fill-rule="nonzero"/><path fill="#dfdfdf" d="M 179.324219 185.816406 C 178.828125 185.816406 178.335938 185.816406 177.882812 185.816406 C 176.125 185.773438 174.457031 185.589844 172.878906 185.367188 C 176.667969 188.070312 181.171875 189.335938 186.355469 189.109375 C 187.484375 187.304688 188.609375 185.410156 189.785156 183.425781 C 186.355469 185.003906 182.886719 185.773438 179.324219 185.816406 " fill-opacity="1" fill-rule="nonzero"/><path fill="#b70d2b" d="M 173.0625 202.144531 C 172.203125 203.859375 170.625 205.75 168.328125 207.828125 C 165.039062 210.757812 161.972656 212.199219 159.042969 212.199219 C 157.78125 212.199219 156.339844 211.839844 154.671875 211.117188 C 153.949219 211.75 153.230469 212.425781 152.464844 213.148438 C 152.507812 213.554688 152.554688 213.957031 152.644531 214.277344 C 153.003906 215.898438 153.949219 216.847656 155.4375 217.070312 C 157.824219 217.566406 160.9375 216.574219 164.8125 214.140625 C 168.464844 211.976562 172.339844 208.367188 176.484375 203.359375 C 175.402344 202.730469 174.277344 202.324219 173.0625 202.144531 " fill-opacity="1" fill-rule="nonzero"/><path fill="#5e0000" d="M 173.0625 202.144531 C 174.277344 202.324219 175.402344 202.730469 176.484375 203.359375 C 176.621094 203.136719 176.800781 202.953125 176.980469 202.730469 L 177.839844 201.648438 C 178.0625 201.332031 178.335938 201.015625 178.558594 200.699219 C 179.957031 198.761719 181.398438 196.6875 182.886719 194.476562 C 177.972656 194.027344 173.917969 192.941406 170.625 191.183594 C 166.4375 194.835938 163.640625 199.527344 162.242188 205.257812 C 166.34375 202.730469 169.949219 201.691406 173.0625 202.144531 " fill-opacity="1" fill-rule="nonzero"/><path fill="#58718f" d="M 192.691406 167.632812 C 192.371094 167.632812 192.050781 167.621094 191.726562 167.59375 L 191.539062 167.59375 C 191.019531 167.546875 190.550781 167.453125 190.125 167.359375 C 188.09375 166.839844 186.425781 165.929688 185.152344 164.652344 C 183.382812 162.96875 182.300781 160.617188 181.925781 157.660156 C 180.214844 159.832031 178.050781 161.136719 175.480469 161.542969 C 175.457031 161.546875 175.445312 161.546875 175.441406 161.546875 C 175.398438 161.566406 175.355469 161.582031 175.304688 161.589844 C 174.128906 161.785156 172.933594 161.769531 171.75 161.542969 C 171.203125 161.457031 170.652344 161.328125 169.984375 161.125 C 166.445312 159.753906 164.101562 157.15625 162.988281 153.394531 C 162.570312 151.863281 162.503906 150.246094 162.792969 148.570312 C 162.886719 148.101562 162.976562 147.648438 163.066406 147.238281 C 163.125 146.96875 163.386719 146.804688 163.660156 146.863281 C 163.925781 146.921875 164.09375 147.183594 164.03125 147.453125 C 163.945312 147.855469 163.855469 148.304688 163.765625 148.75 C 163.503906 150.269531 163.5625 151.746094 163.9375 153.121094 C 164.972656 156.617188 167.058594 158.929688 170.308594 160.1875 C 170.894531 160.367188 171.402344 160.488281 171.917969 160.566406 C 172.976562 160.769531 174.023438 160.789062 175.054688 160.625 C 175.203125 160.558594 175.34375 160.558594 175.402344 160.558594 C 178.054688 160.132812 180.199219 158.644531 181.882812 156.007812 C 182 155.828125 182.21875 155.738281 182.425781 155.796875 C 182.632812 155.851562 182.785156 156.03125 182.796875 156.25 C 182.96875 159.59375 183.992188 162.179688 185.84375 163.945312 C 186.996094 165.101562 188.515625 165.921875 190.355469 166.394531 C 190.726562 166.476562 191.160156 166.5625 191.589844 166.605469 L 191.765625 166.605469 C 195.453125 166.902344 198.664062 165.332031 201.335938 161.921875 C 201.761719 161.285156 202.207031 160.570312 202.652344 159.8125 C 202.773438 159.609375 202.855469 159.40625 202.933594 159.203125 C 203.035156 158.949219 203.324219 158.832031 203.578125 158.925781 C 203.832031 159.03125 203.957031 159.316406 203.855469 159.570312 C 203.757812 159.820312 203.652344 160.066406 203.503906 160.316406 C 203.050781 161.089844 202.59375 161.820312 202.140625 162.503906 C 199.460938 165.917969 196.292969 167.632812 192.691406 167.632812 Z M 183.746094 152.125 C 183.726562 152.125 183.707031 152.125 183.691406 152.121094 C 183.417969 152.089844 183.222656 151.847656 183.25 151.574219 C 183.300781 151.117188 183.578125 150.503906 184.175781 149.523438 L 184.21875 149.453125 C 183.714844 146.402344 182.167969 143.882812 179.613281 141.96875 C 179.597656 141.953125 179.53125 141.890625 179.515625 141.875 C 179.324219 141.679688 179.324219 141.367188 179.519531 141.175781 C 179.714844 140.980469 180.027344 140.984375 180.21875 141.179688 C 182.664062 143.015625 184.257812 145.375 184.96875 148.195312 C 186.167969 146.441406 187.941406 145.019531 190.253906 143.964844 C 191.960938 143.15625 193.609375 142.746094 195.144531 142.746094 C 195.417969 142.746094 195.640625 142.964844 195.640625 143.238281 C 195.640625 143.515625 195.417969 143.734375 195.144531 143.734375 C 193.757812 143.734375 192.25 144.113281 190.671875 144.859375 C 188.085938 146.046875 186.238281 147.695312 185.179688 149.773438 C 185.171875 149.785156 185.167969 149.796875 185.160156 149.808594 C 185.160156 149.8125 185.15625 149.8125 185.15625 149.8125 L 185.023438 150.039062 C 184.53125 150.839844 184.265625 151.394531 184.234375 151.683594 C 184.207031 151.9375 183.992188 152.125 183.746094 152.125 " fill-opacity="1" fill-rule="nonzero"/><path fill="#640616" d="M 152.464844 213.640625 C 152.332031 213.640625 152.199219 213.589844 152.101562 213.488281 C 151.914062 213.289062 151.925781 212.972656 152.125 212.785156 C 152.894531 212.0625 153.621094 211.378906 154.34375 210.742188 C 156.960938 208.308594 159.535156 206.316406 161.988281 204.832031 C 166.167969 202.257812 169.917969 201.1875 173.132812 201.652344 C 174.402344 201.839844 175.582031 202.261719 176.734375 202.933594 C 176.972656 203.070312 177.050781 203.375 176.914062 203.609375 C 176.777344 203.847656 176.472656 203.921875 176.238281 203.789062 C 175.195312 203.179688 174.132812 202.800781 172.988281 202.632812 C 170.011719 202.199219 166.484375 203.226562 162.503906 205.675781 C 160.105469 207.125 157.585938 209.078125 155.007812 211.480469 C 154.28125 212.117188 153.5625 212.792969 152.800781 213.507812 C 152.707031 213.597656 152.585938 213.640625 152.464844 213.640625 " fill-opacity="1" fill-rule="nonzero"/><path fill="#777593" d="M 182.886719 194.972656 C 182.871094 194.972656 182.855469 194.96875 182.839844 194.96875 C 177.820312 194.507812 173.75 193.414062 170.394531 191.621094 C 165.957031 189.289062 162.90625 185.671875 161.320312 180.875 C 161.234375 180.617188 161.378906 180.335938 161.636719 180.25 C 161.894531 180.15625 162.175781 180.304688 162.261719 180.566406 C 163.761719 185.109375 166.652344 188.535156 170.855469 190.746094 C 174.097656 192.476562 178.042969 193.535156 182.929688 193.984375 C 183.203125 194.007812 183.40625 194.25 183.378906 194.519531 C 183.355469 194.777344 183.140625 194.972656 182.886719 194.972656 " fill-opacity="1" fill-rule="nonzero"/><path fill="#000000" d="M 203.4375 160.289062 C 203.3125 160.289062 203.1875 160.265625 203.066406 160.214844 C 202.558594 160.007812 202.316406 159.429688 202.523438 158.921875 C 203.644531 156.175781 203.839844 153.535156 203.113281 150.851562 C 202.34375 148.046875 200.769531 146.089844 198.4375 145.046875 C 197.410156 144.535156 196.335938 144.273438 195.109375 144.230469 C 194.566406 144.210938 194.136719 143.753906 194.15625 143.207031 C 194.175781 142.660156 194.632812 142.183594 195.179688 142.25 C 196.691406 142.300781 198.035156 142.632812 199.285156 143.253906 C 202.144531 144.539062 204.085938 146.921875 205.023438 150.328125 C 205.855469 153.414062 205.632812 156.554688 204.355469 159.671875 C 204.199219 160.054688 203.828125 160.289062 203.4375 160.289062 Z M 163.6875 148.066406 C 163.597656 148.066406 163.507812 148.054688 163.417969 148.027344 C 162.890625 147.882812 162.585938 147.332031 162.734375 146.808594 C 163.425781 144.335938 164.855469 142.304688 166.984375 140.765625 C 169.59375 138.847656 172.484375 138.117188 175.558594 138.609375 C 177.3125 138.894531 178.832031 139.539062 180.203125 140.582031 C 180.304688 140.625 180.433594 140.695312 180.5625 140.820312 C 180.953125 141.207031 180.957031 141.832031 180.574219 142.222656 C 180.246094 142.550781 179.746094 142.609375 179.363281 142.378906 C 179.230469 142.320312 179.074219 142.222656 178.992188 142.144531 C 177.953125 141.34375 176.699219 140.800781 175.246094 140.566406 C 172.679688 140.15625 170.355469 140.746094 168.148438 142.367188 C 166.382812 143.640625 165.207031 145.3125 164.640625 147.339844 C 164.515625 147.777344 164.117188 148.066406 163.6875 148.066406 " fill-opacity="1" fill-rule="nonzero"/><path fill="#6b96fa" d="M 194.246094 152.394531 C 193.207031 152.261719 192.214844 152.53125 191.359375 153.296875 C 190.503906 154.019531 189.964844 154.964844 189.738281 156.183594 C 189.648438 156.589844 189.601562 157.042969 189.648438 157.449219 C 190.144531 160.199219 191.449219 161.550781 193.65625 161.417969 C 194.378906 161.28125 195.054688 160.964844 195.730469 160.425781 C 196.589844 159.703125 197.128906 158.710938 197.355469 157.492188 C 197.355469 157.449219 197.355469 157.402344 197.398438 157.359375 C 197.535156 156.140625 197.355469 155.058594 196.769531 154.199219 C 196.542969 153.839844 196.316406 153.523438 196.046875 153.253906 C 195.550781 152.804688 194.921875 152.53125 194.246094 152.394531 " fill-opacity="1" fill-rule="nonzero"/><path fill="#000075" d="M 193.363281 161.921875 C 191.097656 161.921875 189.683594 160.445312 189.160156 157.535156 C 189.09375 156.964844 189.175781 156.429688 189.253906 156.078125 C 189.492188 154.785156 190.097656 153.714844 191.042969 152.917969 C 191.960938 152.09375 193.09375 151.746094 194.308594 151.902344 C 195.164062 152.074219 195.847656 152.402344 196.378906 152.886719 C 196.664062 153.167969 196.90625 153.488281 197.1875 153.9375 C 197.804688 154.839844 198.046875 156.015625 197.890625 157.414062 C 197.882812 157.480469 197.859375 157.550781 197.828125 157.609375 C 197.558594 158.992188 196.964844 160.035156 196.050781 160.804688 C 195.3125 161.394531 194.5625 161.75 193.75 161.902344 C 193.578125 161.917969 193.46875 161.921875 193.363281 161.921875 Z M 193.738281 152.859375 C 192.980469 152.859375 192.289062 153.128906 191.6875 153.667969 C 190.902344 154.328125 190.429688 155.179688 190.222656 156.273438 C 190.132812 156.6875 190.105469 157.078125 190.140625 157.394531 C 190.566406 159.761719 191.621094 160.929688 193.363281 160.929688 C 193.449219 160.929688 193.539062 160.925781 193.628906 160.921875 C 194.21875 160.808594 194.824219 160.515625 195.421875 160.039062 C 196.171875 159.40625 196.660156 158.515625 196.867188 157.402344 C 196.867188 157.40625 196.867188 157.40625 196.867188 157.40625 C 196.863281 157.40625 196.863281 157.308594 196.917969 157.191406 C 197.023438 156.085938 196.835938 155.175781 196.359375 154.480469 C 196.109375 154.082031 195.90625 153.8125 195.699219 153.601562 C 195.316406 153.257812 194.789062 153.011719 194.148438 152.882812 C 194.03125 152.867188 193.886719 152.859375 193.738281 152.859375 " fill-opacity="1" fill-rule="nonzero"/><path fill="#000000" d="M 193.074219 158.890625 C 193.65625 159.027344 194.199219 158.890625 194.695312 158.484375 C 195.191406 158.125 195.507812 157.675781 195.597656 157.085938 C 195.730469 156.5 195.597656 155.914062 195.191406 155.417969 C 194.875 154.921875 194.425781 154.652344 193.839844 154.515625 C 193.253906 154.425781 192.664062 154.5625 192.125 154.921875 C 191.628906 155.28125 191.359375 155.777344 191.226562 156.363281 C 191.132812 156.949219 191.269531 157.492188 191.628906 157.988281 C 191.992188 158.484375 192.488281 158.800781 193.074219 158.890625 " fill-opacity="1" fill-rule="nonzero"/><path fill="#000000" d="M 193.503906 159.4375 C 193.324219 159.4375 193.144531 159.417969 192.964844 159.375 C 192.285156 159.269531 191.671875 158.890625 191.230469 158.28125 C 190.789062 157.675781 190.625 157.007812 190.734375 156.289062 C 190.917969 155.496094 191.273438 154.929688 191.835938 154.523438 C 192.496094 154.082031 193.195312 153.917969 193.914062 154.027344 C 194.699219 154.207031 195.238281 154.574219 195.609375 155.152344 C 196.070312 155.710938 196.25 156.457031 196.078125 157.195312 C 195.980469 157.851562 195.609375 158.429688 194.984375 158.882812 C 194.546875 159.246094 194.042969 159.4375 193.503906 159.4375 Z M 193.488281 154.984375 C 193.113281 154.984375 192.75 155.101562 192.402344 155.332031 C 192.050781 155.585938 191.828125 155.953125 191.707031 156.476562 C 191.644531 156.894531 191.746094 157.308594 192.03125 157.699219 C 192.316406 158.089844 192.703125 158.332031 193.148438 158.402344 C 193.292969 158.433594 193.402344 158.445312 193.503906 158.445312 C 193.8125 158.445312 194.097656 158.335938 194.382812 158.101562 C 194.816406 157.78125 195.042969 157.441406 195.105469 157.011719 C 195.21875 156.53125 195.109375 156.101562 194.808594 155.730469 C 194.542969 155.324219 194.222656 155.113281 193.726562 155 C 193.671875 154.992188 193.578125 154.984375 193.488281 154.984375 " fill-opacity="1" fill-rule="nonzero"/><path fill="#ffffff" d="M 192.847656 155.328125 C 193.164062 155.101562 193.34375 154.785156 193.386719 154.382812 C 193.433594 154.019531 193.386719 153.707031 193.164062 153.390625 C 192.9375 153.074219 192.621094 152.847656 192.214844 152.804688 C 191.855469 152.757812 191.539062 152.847656 191.226562 153.074219 C 190.910156 153.296875 190.683594 153.570312 190.636719 153.929688 C 190.59375 154.335938 190.683594 154.695312 190.910156 155.011719 C 191.132812 155.328125 191.40625 155.507812 191.765625 155.554688 C 192.171875 155.597656 192.53125 155.554688 192.847656 155.328125 " fill-opacity="1" fill-rule="nonzero"/><path fill="#ffffff" d="M 194.785156 159.433594 C 194.96875 159.34375 195.054688 159.207031 195.101562 159.027344 C 195.144531 158.847656 195.101562 158.667969 194.96875 158.484375 C 194.875 158.351562 194.738281 158.304688 194.5625 158.261719 C 194.378906 158.214844 194.199219 158.261719 194.019531 158.351562 C 193.882812 158.484375 193.792969 158.621094 193.75 158.800781 C 193.703125 158.980469 193.75 159.164062 193.839844 159.296875 C 193.972656 159.476562 194.15625 159.566406 194.335938 159.613281 C 194.515625 159.65625 194.648438 159.566406 194.785156 159.433594 " fill-opacity="1" fill-rule="nonzero"/><path fill="#36425a" d="M 169.410156 134.175781 C 174.503906 129.484375 179.371094 127.589844 184.015625 128.449219 C 180.40625 122.222656 175.539062 124.117188 169.410156 134.175781 " fill-opacity="1" fill-rule="nonzero"/><path fill="#36425a" d="M 206.144531 143.964844 C 204.386719 130.929688 200.914062 126.554688 195.730469 130.882812 C 201.007812 133.542969 204.476562 137.917969 206.144531 143.964844 " fill-opacity="1" fill-rule="nonzero"/><path fill="#2d364a" d="M 206.144531 144.457031 C 205.925781 144.457031 205.726562 144.3125 205.667969 144.09375 C 204.039062 138.203125 200.621094 133.90625 195.507812 131.324219 C 195.359375 131.25 195.261719 131.105469 195.238281 130.941406 C 195.222656 130.773438 195.285156 130.609375 195.414062 130.503906 C 196.789062 129.351562 198.089844 128.769531 199.285156 128.769531 C 202.859375 128.769531 205.261719 133.71875 206.632812 143.894531 C 206.667969 144.15625 206.5 144.394531 206.242188 144.449219 C 206.207031 144.457031 206.175781 144.457031 206.144531 144.457031 Z M 196.644531 130.800781 C 200.234375 132.773438 202.976562 135.59375 204.839844 139.21875 C 203.539062 133.007812 201.644531 129.761719 199.285156 129.761719 C 198.492188 129.761719 197.605469 130.113281 196.644531 130.800781 Z M 169.410156 134.667969 C 169.300781 134.667969 169.1875 134.632812 169.09375 134.558594 C 168.90625 134.402344 168.859375 134.128906 168.988281 133.917969 C 172.898438 127.496094 176.277344 124.375 179.316406 124.375 C 181.21875 124.375 182.917969 125.621094 184.375 128.082031 C 184.472656 128.171875 184.535156 128.304688 184.535156 128.449219 C 184.535156 128.71875 184.3125 128.941406 184.039062 128.941406 C 184.03125 128.945312 184.023438 128.941406 184.015625 128.941406 C 183.984375 128.941406 183.953125 128.941406 183.921875 128.933594 C 179.445312 128.109375 174.683594 129.992188 169.746094 134.539062 C 169.652344 134.625 169.53125 134.667969 169.410156 134.667969 Z M 179.316406 125.367188 C 177.125 125.367188 174.539062 127.488281 171.613281 131.691406 C 175.523438 128.757812 179.332031 127.457031 183.023438 127.808594 C 181.886719 126.1875 180.644531 125.367188 179.316406 125.367188 " fill-opacity="1" fill-rule="nonzero"/><path fill="#6b96fa" d="M 172.789062 154.109375 C 173.015625 154.382812 173.242188 154.652344 173.464844 154.878906 C 174.953125 156.003906 176.53125 156.09375 178.152344 155.148438 C 178.199219 155.101562 178.246094 155.101562 178.289062 155.058594 C 179.191406 154.382812 179.730469 153.523438 179.910156 152.488281 C 180.09375 151.449219 179.867188 150.457031 179.191406 149.554688 C 178.605469 148.652344 177.75 148.109375 176.667969 147.929688 C 176.484375 147.886719 176.304688 147.886719 176.082031 147.886719 C 175.226562 147.886719 174.457031 148.15625 173.691406 148.652344 C 172.835938 149.285156 172.339844 150.140625 172.160156 151.179688 C 172.023438 152.261719 172.203125 153.253906 172.789062 154.109375 " fill-opacity="1" fill-rule="nonzero"/><path fill="#000075" d="M 175.964844 156.292969 C 175.003906 156.292969 174.058594 155.949219 173.167969 155.273438 C 172.882812 154.992188 172.644531 154.710938 172.410156 154.429688 C 171.753906 153.46875 171.511719 152.367188 171.667969 151.117188 C 171.878906 149.902344 172.460938 148.945312 173.398438 148.253906 C 174.300781 147.667969 175.171875 147.390625 176.082031 147.390625 C 176.320312 147.390625 176.546875 147.390625 176.785156 147.453125 C 177.984375 147.648438 178.945312 148.265625 179.605469 149.285156 C 180.335938 150.257812 180.609375 151.371094 180.398438 152.574219 C 180.199219 153.730469 179.589844 154.703125 178.585938 155.453125 C 178.5625 155.472656 178.46875 155.53125 178.445312 155.542969 C 177.589844 156.050781 176.769531 156.292969 175.964844 156.292969 Z M 176.082031 148.382812 C 175.355469 148.382812 174.683594 148.601562 173.960938 149.066406 C 173.25 149.59375 172.8125 150.316406 172.644531 151.261719 C 172.523438 152.257812 172.703125 153.105469 173.199219 153.828125 C 173.386719 154.050781 173.601562 154.3125 173.816406 154.527344 C 175.042969 155.445312 176.457031 155.5625 177.898438 154.722656 C 177.9375 154.695312 177.976562 154.671875 178 154.660156 C 178.796875 154.058594 179.265625 153.320312 179.425781 152.402344 C 179.585938 151.480469 179.375 150.621094 178.796875 149.851562 C 178.273438 149.050781 177.535156 148.578125 176.585938 148.421875 C 176.425781 148.382812 176.28125 148.382812 176.082031 148.382812 " fill-opacity="1" fill-rule="nonzero"/><path fill="#000000" d="M 177.296875 153.34375 C 177.792969 153.027344 178.0625 152.621094 178.152344 152.035156 C 178.246094 151.449219 178.109375 150.953125 177.75 150.503906 C 177.433594 150.097656 177.027344 149.828125 176.441406 149.734375 C 175.855469 149.601562 175.359375 149.691406 174.910156 150.007812 C 174.503906 150.324219 174.234375 150.773438 174.140625 151.359375 C 174.050781 151.945312 174.140625 152.441406 174.457031 152.847656 C 174.773438 153.34375 175.179688 153.613281 175.765625 153.75 C 176.351562 153.839844 176.847656 153.707031 177.296875 153.34375 " fill-opacity="1" fill-rule="nonzero"/><path fill="#000000" d="M 176.105469 154.273438 C 175.972656 154.273438 175.832031 154.261719 175.691406 154.238281 C 174.933594 154.066406 174.421875 153.710938 174.042969 153.113281 C 173.679688 152.652344 173.539062 152.023438 173.652344 151.285156 C 173.757812 150.59375 174.089844 150.015625 174.605469 149.613281 C 175.203125 149.195312 175.835938 149.085938 176.554688 149.253906 C 177.191406 149.351562 177.722656 149.660156 178.140625 150.199219 C 178.589844 150.761719 178.753906 151.386719 178.644531 152.109375 C 178.535156 152.828125 178.179688 153.367188 177.5625 153.761719 C 177.160156 154.089844 176.65625 154.273438 176.105469 154.273438 Z M 175.9375 150.171875 C 175.664062 150.171875 175.429688 150.246094 175.191406 150.410156 C 174.894531 150.644531 174.699219 150.992188 174.632812 151.433594 C 174.558594 151.90625 174.628906 152.257812 174.847656 152.542969 C 175.117188 152.960938 175.40625 153.160156 175.878906 153.265625 C 175.933594 153.273438 176.019531 153.28125 176.105469 153.28125 C 176.429688 153.28125 176.710938 153.179688 176.988281 152.957031 C 177.414062 152.683594 177.597656 152.402344 177.664062 151.960938 C 177.734375 151.515625 177.640625 151.160156 177.359375 150.8125 C 177.097656 150.46875 176.789062 150.292969 176.367188 150.222656 C 176.191406 150.1875 176.058594 150.171875 175.9375 150.171875 " fill-opacity="1" fill-rule="nonzero"/><path fill="#ffffff" d="M 175.988281 150.367188 C 176.304688 150.140625 176.484375 149.828125 176.53125 149.464844 C 176.578125 149.105469 176.53125 148.789062 176.304688 148.519531 C 176.082031 148.203125 175.765625 147.976562 175.449219 147.933594 C 175.089844 147.886719 174.773438 147.976562 174.457031 148.203125 C 174.140625 148.425781 173.917969 148.699219 173.871094 149.058594 C 173.828125 149.421875 173.917969 149.734375 174.140625 150.050781 C 174.367188 150.367188 174.636719 150.546875 175 150.59375 C 175.316406 150.636719 175.675781 150.59375 175.988281 150.367188 " fill-opacity="1" fill-rule="nonzero"/><path fill="#ffffff" d="M 177.386719 154.15625 C 177.476562 154.066406 177.523438 153.929688 177.570312 153.75 C 177.613281 153.570312 177.570312 153.433594 177.523438 153.296875 C 177.433594 153.164062 177.296875 153.074219 177.117188 153.027344 C 176.9375 152.984375 176.757812 153.027344 176.621094 153.117188 C 176.484375 153.253906 176.394531 153.390625 176.351562 153.570312 C 176.304688 153.75 176.351562 153.886719 176.484375 153.976562 C 176.578125 154.109375 176.710938 154.199219 176.890625 154.246094 C 177.070312 154.292969 177.253906 154.246094 177.386719 154.15625 " fill-opacity="1" fill-rule="nonzero"/><path fill="#58718f" d="M 156.703125 217.695312 C 156.226562 217.695312 155.773438 217.648438 155.335938 217.558594 C 153.671875 217.304688 152.5625 216.207031 152.160156 214.382812 C 152.066406 214.054688 152.015625 213.621094 151.972656 213.203125 C 151.832031 211.832031 151.953125 210.121094 152.335938 207.964844 C 156.578125 196.28125 157.90625 185.515625 156.300781 175.886719 C 156.300781 175.886719 156.296875 175.769531 156.292969 175.710938 C 155.375 174.492188 154.675781 173.203125 154.160156 171.777344 C 154.132812 171.695312 154.105469 171.605469 154.082031 171.515625 L 154.023438 171.316406 C 153.9375 171.054688 154.074219 170.777344 154.335938 170.6875 C 154.59375 170.597656 154.875 170.742188 154.960938 171.003906 L 155.09375 171.453125 C 155.582031 172.792969 156.25 174.011719 157.125 175.175781 C 157.136719 175.1875 157.144531 175.199219 157.15625 175.210938 C 157.164062 175.226562 157.175781 175.242188 157.183594 175.257812 C 157.1875 175.269531 157.191406 175.277344 157.195312 175.285156 C 157.207031 175.304688 157.214844 175.328125 157.222656 175.347656 C 157.242188 175.378906 157.285156 175.417969 157.316406 175.453125 C 157.445312 175.625 157.507812 175.71875 157.5625 175.753906 C 157.609375 175.785156 157.648438 175.824219 157.683594 175.871094 C 158.878906 177.480469 160.324219 178.9375 162.097656 180.332031 C 163.675781 181.550781 165.425781 182.542969 167.292969 183.28125 C 169.007812 183.984375 170.914062 184.519531 172.964844 184.878906 C 174.808594 185.140625 176.378906 185.28125 177.894531 185.320312 L 179.324219 185.320312 C 182.894531 185.277344 186.246094 184.511719 189.570312 182.980469 C 189.574219 182.976562 189.582031 182.972656 189.589844 182.96875 C 192.050781 181.902344 194.480469 180.425781 196.820312 178.574219 C 195.195312 178.128906 193.570312 178.03125 191.976562 178.277344 C 191.710938 178.320312 191.453125 178.136719 191.410156 177.863281 C 191.367188 177.59375 191.554688 177.339844 191.824219 177.300781 C 193.863281 176.980469 195.941406 177.1875 198.003906 177.90625 C 198.019531 177.910156 198.035156 177.917969 198.050781 177.921875 L 198.378906 178.058594 C 198.570312 178.132812 198.75 178.203125 198.925781 178.292969 C 200.914062 179.5 202.375 181.21875 203.308594 183.414062 C 203.414062 183.664062 203.296875 183.957031 203.046875 184.0625 C 202.796875 184.171875 202.503906 184.054688 202.398438 183.800781 C 201.546875 181.800781 200.21875 180.238281 198.449219 179.160156 C 198.332031 179.101562 198.179688 179.042969 198.011719 178.976562 L 197.9375 178.945312 C 195.421875 181.003906 192.792969 182.644531 190.128906 183.816406 C 189.105469 185.546875 187.929688 187.523438 186.777344 189.371094 L 185.804688 190.867188 C 185.324219 191.609375 184.847656 192.339844 184.386719 193.070312 C 184.03125 193.652344 183.667969 194.195312 183.308594 194.738281 C 181.804688 196.96875 180.347656 199.070312 178.960938 200.988281 C 178.84375 201.152344 178.714844 201.316406 178.589844 201.480469 C 178.46875 201.632812 178.351562 201.78125 178.242188 201.933594 L 177.191406 203.25 C 177.089844 203.367188 176.992188 203.484375 176.910156 203.613281 C 172.605469 208.820312 168.746094 212.382812 165.066406 214.566406 C 161.734375 216.660156 158.976562 217.695312 156.703125 217.695312 Z M 157.503906 177.25 C 158.769531 186.605469 157.355469 197.035156 153.289062 208.222656 C 152.949219 210.171875 152.832031 211.839844 152.953125 213.101562 C 152.996094 213.472656 153.039062 213.863281 153.117188 214.140625 C 153.445312 215.597656 154.222656 216.386719 155.511719 216.582031 C 157.761719 217.046875 160.789062 216.082031 164.550781 213.71875 C 168.140625 211.589844 171.917969 208.101562 176.105469 203.042969 C 176.171875 202.925781 176.300781 202.769531 176.441406 202.605469 L 177.449219 201.339844 C 177.554688 201.195312 177.679688 201.03125 177.808594 200.867188 C 177.929688 200.71875 178.046875 200.566406 178.15625 200.410156 C 179.535156 198.496094 180.988281 196.410156 182.476562 194.199219 C 182.839844 193.65625 183.191406 193.125 183.546875 192.546875 C 184.011719 191.808594 184.492188 191.074219 184.976562 190.328125 L 185.941406 188.839844 C 186.832031 187.410156 187.742188 185.894531 188.585938 184.480469 C 185.585938 185.671875 182.546875 186.269531 179.332031 186.3125 L 177.882812 186.3125 C 176.316406 186.273438 174.707031 186.128906 172.808594 185.855469 C 170.675781 185.484375 168.699219 184.929688 166.921875 184.199219 C 164.976562 183.429688 163.144531 182.390625 161.488281 181.113281 C 159.9375 179.894531 158.625 178.625 157.503906 177.25 " fill-opacity="1" fill-rule="nonzero"/><path fill="#959bac" d="M 152.878906 233.046875 C 152.035156 233.046875 151.25 232.902344 150.523438 232.617188 C 148.023438 231.632812 146.34375 228.925781 145.53125 224.558594 C 145.480469 224.292969 145.65625 224.035156 145.925781 223.984375 C 146.195312 223.925781 146.453125 224.109375 146.503906 224.378906 C 147.25 228.382812 148.726562 230.84375 150.886719 231.695312 C 153.609375 232.769531 157.589844 231.382812 162.714844 227.589844 C 162.933594 227.425781 163.242188 227.472656 163.40625 227.691406 C 163.570312 227.910156 163.523438 228.222656 163.304688 228.382812 C 159.09375 231.503906 155.65625 233.046875 152.878906 233.046875 " fill-opacity="1" fill-rule="nonzero"/></svg>