<?xml version="1.0" standalone="no"?>
<!DOCTYPE svg PUBLIC "-//W3C//DTD SVG 20010904//EN"
 "http://www.w3.org/TR/2001/REC-SVG-20010904/DTD/svg10.dtd">
<svg version="1.0" xmlns="http://www.w3.org/2000/svg"
 width="961.000000pt" height="481.000000pt" viewBox="0 0 961.000000 481.000000"
 preserveAspectRatio="xMidYMid meet">

<g transform="translate(0.000000,481.000000) scale(0.100000,-0.100000)"
fill="#000000" stroke="none">
<path d="M1926 4781 c8 -16 21 -32 29 -35 8 -3 12 -11 10 -18 -4 -10 -41 -13
-148 -14 -136 -1 -196 -12 -182 -34 3 -4 -10 -18 -28 -30 l-32 -22 30 6 c211
42 251 44 311 17 23 -10 51 -33 63 -50 30 -41 39 -98 19 -114 -24 -19 -31 -92
-13 -127 8 -16 14 -32 13 -34 -4 -6 34 -46 44 -46 5 0 6 5 3 10 -8 13 15 13
35 0 12 -8 13 -10 1 -10 -8 0 -22 -6 -30 -14 -9 -7 -29 -18 -46 -24 -26 -10
-24 -11 20 -5 65 8 141 6 198 -5 4 -1 7 -10 8 -19 0 -12 5 -9 13 10 7 15 15
24 19 21 4 -4 17 -2 30 4 30 15 170 42 218 42 40 0 55 -22 24 -33 -12 -5 -48
-53 -81 -108 -6 -11 -21 -28 -35 -39 -22 -20 -24 -20 -30 -3 -4 10 -8 14 -8 9
-1 -5 -8 -3 -16 4 -8 6 -18 9 -24 6 -5 -4 -17 1 -26 10 -9 9 -26 18 -38 19
-36 4 -37 4 -31 20 7 18 -12 20 -20 3 -5 -10 -7 -10 -12 0 -8 17 -34 15 -34
-3 0 -8 -4 -15 -8 -15 -26 0 -45 -131 -21 -146 6 -3 9 -17 6 -30 -2 -13 0 -24
5 -24 6 0 8 -7 4 -15 -3 -9 0 -15 9 -15 8 0 15 -4 15 -10 0 -5 5 -10 11 -10 5
0 7 5 4 10 -7 11 -1 12 58 13 23 0 37 5 37 13 0 7 8 10 20 7 12 -3 20 -14 20
-27 0 -19 -12 -25 -97 -48 -54 -14 -147 -36 -208 -48 -60 -13 -144 -33 -185
-46 -73 -22 -74 -22 -32 -23 23 -1 75 8 115 19 71 20 188 32 318 34 57 1 70
-3 102 -27 20 -15 37 -34 37 -42 0 -7 12 -23 28 -34 l27 -21 -23 -20 c-26 -21
-20 -45 9 -37 31 8 2 -26 -50 -58 -25 -16 -48 -32 -51 -35 -9 -10 -90 -60 -97
-60 -5 0 -17 -7 -27 -15 -19 -15 -19 -15 5 -41 23 -24 23 -26 7 -55 -17 -29
-17 -29 8 -29 14 0 35 -6 47 -14 12 -7 44 -16 70 -20 27 -3 61 -15 77 -26 35
-25 45 -25 87 1 29 18 38 19 62 9 27 -11 79 -7 232 16 31 4 37 2 47 -21 7 -14
12 -37 12 -50 0 -14 5 -25 10 -25 6 0 10 -8 10 -18 0 -10 4 -22 9 -28 21 -23
42 -123 56 -270 9 -87 20 -161 24 -164 5 -3 11 -14 15 -25 3 -11 20 -36 36
-55 47 -54 61 -89 67 -167 4 -43 11 -78 19 -84 8 -6 14 -18 14 -26 0 -19 58
-103 71 -103 6 0 8 -10 4 -22 -5 -19 -4 -20 5 -8 8 11 13 12 16 3 10 -23 69
-51 134 -61 105 -18 177 -23 160 -12 -8 5 -10 10 -4 10 6 0 21 -11 34 -25 21
-23 22 -26 8 -42 -8 -10 -13 -24 -11 -31 3 -7 0 -19 -6 -26 -7 -8 -14 -36 -18
-63 -7 -61 9 -96 40 -91 12 2 27 -3 33 -11 15 -19 103 -51 142 -51 17 0 32 -4
32 -10 0 -5 6 -10 13 -10 8 0 26 -13 40 -29 23 -26 25 -36 20 -78 -5 -43 -2
-54 27 -97 18 -26 39 -50 46 -53 8 -3 14 -11 14 -19 0 -7 9 -18 20 -24 11 -6
20 -16 20 -24 0 -7 10 -22 23 -33 12 -11 30 -29 39 -39 10 -10 31 -32 48 -49
16 -16 30 -34 30 -39 0 -34 112 -165 224 -264 34 -30 38 -38 39 -87 2 -40 5
-51 13 -42 11 12 38 116 40 152 0 11 6 19 12 18 7 -2 12 6 12 18 0 11 -5 17
-10 14 -6 -3 -10 -1 -10 4 0 6 5 11 10 11 6 0 19 9 30 20 11 11 27 20 36 20
15 0 16 12 10 108 -13 202 -13 187 11 190 13 2 25 -4 31 -15 12 -22 29 -133
41 -273 10 -110 27 -186 49 -213 33 -39 -60 -24 -113 19 -32 27 -34 32 -29 74
2 25 7 57 10 72 7 35 -14 38 -42 6 -16 -18 -16 -20 -2 -15 14 5 15 1 7 -25 -5
-18 -14 -35 -21 -40 -9 -5 -10 -11 -3 -15 6 -5 21 -21 33 -37 21 -27 21 -30 6
-48 -25 -27 -33 -22 -27 17 6 40 -6 46 -37 15 -14 -14 -18 -28 -14 -49 4 -16
0 -43 -9 -62 -43 -98 -44 -122 -2 -141 41 -18 47 -14 32 19 -9 21 -8 27 8 39
24 18 42 3 43 -37 0 -18 6 -35 12 -39 8 -5 4 -9 -9 -13 -27 -7 -26 -18 5 -52
14 -15 24 -29 22 -31 -7 -6 -48 8 -48 17 0 5 -4 9 -10 9 -5 0 -10 -18 -10 -39
l0 -40 -57 -6 c-165 -18 -261 -35 -288 -49 -16 -9 -45 -16 -62 -16 -42 0 -110
-27 -117 -47 -5 -11 -2 -14 11 -9 14 6 14 4 -3 -15 l-19 -23 30 21 c49 34 72
37 80 12 6 -17 9 -19 16 -8 7 11 9 11 9 -3 0 -9 -5 -20 -10 -23 -6 -4 -8 -16
-4 -28 6 -19 5 -20 -8 -9 -13 11 -17 8 -23 -15 -4 -17 -2 -29 4 -31 6 -2 11
-15 11 -28 0 -17 -4 -23 -12 -18 -7 5 -9 2 -5 -9 5 -12 -2 -17 -30 -19 -20 -2
-38 -9 -41 -16 -2 -7 2 -10 12 -6 15 6 236 -9 332 -23 l44 -6 0 49 c0 27 4 55
8 62 5 6 32 18 60 24 29 7 52 16 52 20 0 13 84 31 88 19 5 -14 49 -14 58 0 3
6 15 8 26 6 11 -3 17 -3 13 1 -3 4 18 11 47 17 41 8 53 14 55 30 2 11 0 14 -3
8 -12 -26 -84 -7 -84 22 0 8 -4 15 -10 15 -5 0 -10 6 -10 14 0 22 31 24 71 5
34 -17 36 -17 47 2 9 14 9 19 1 19 -7 0 -5 7 5 19 16 17 16 20 -1 50 -10 17
-23 31 -30 31 -22 0 -22 16 -3 53 11 20 20 49 20 64 0 30 9 47 25 50 6 1 17 4
25 7 9 4 44 -11 82 -34 53 -31 73 -39 97 -34 22 5 38 0 64 -20 28 -22 44 -26
98 -26 96 0 109 6 109 47 0 80 89 200 162 218 15 4 47 25 72 46 24 21 49 39
54 39 6 0 14 5 18 11 5 8 -2 10 -21 6 -16 -2 -39 0 -51 5 -20 9 -21 13 -8 25
8 8 14 19 14 24 0 16 -35 10 -47 -9 -8 -14 -22 -18 -57 -17 -25 1 -46 -2 -46
-7 0 -5 8 -8 18 -7 9 1 24 -1 32 -4 8 -3 26 -7 39 -9 14 -2 26 -8 28 -13 8
-24 -69 -47 -197 -60 -19 -2 -38 -4 -41 -4 -3 -1 -14 -9 -25 -19 -10 -10 -32
-23 -49 -29 -16 -6 -39 -15 -50 -19 -11 -4 -24 -6 -28 -5 -5 1 -6 -3 -2 -9 7
-11 -34 -14 -51 -2 -6 4 -14 27 -17 51 -8 63 -23 73 -42 28 -16 -40 -31 -51
-19 -15 18 58 119 188 146 188 8 0 32 8 54 19 21 10 63 24 92 32 42 10 57 20
68 42 19 35 50 33 47 -4 -1 -22 5 -26 43 -35 24 -6 44 -10 44 -9 0 1 -9 19
-20 42 -10 22 -22 69 -26 104 -5 57 -3 68 18 98 31 46 120 95 154 87 15 -4 23
-10 19 -14 -7 -7 -13 -9 -46 -11 -12 0 -19 -6 -16 -13 2 -7 9 -12 15 -11 10 2
56 -97 48 -104 -2 -3 4 -13 14 -23 20 -20 40 -80 40 -121 0 -14 7 -48 15 -75
17 -57 18 -67 6 -60 -12 8 -41 -3 -41 -15 0 -5 12 -10 28 -10 15 -1 20 -3 11
-6 -10 -2 -19 -12 -21 -21 -9 -34 -232 -165 -250 -146 -11 10 -37 -35 -56 -96
-29 -94 -32 -111 -25 -152 6 -40 22 -48 43 -23 8 10 17 12 24 6 6 -5 27 -12
46 -16 19 -4 43 -16 53 -26 10 -11 30 -19 45 -19 33 0 58 -17 66 -45 7 -24
-27 -48 -83 -60 -35 -7 -162 -66 -240 -110 -31 -17 -59 -25 -93 -25 -49 0 -50
0 -44 -28 6 -24 1 -32 -36 -60 -23 -18 -48 -30 -56 -27 -8 3 -25 -4 -39 -15
-33 -26 -48 -25 -67 2 -15 21 -16 21 -37 2 -18 -16 -40 -20 -136 -23 -110 -3
-115 -4 -123 -27 -12 -31 -10 -31 -302 10 -134 19 -303 40 -376 47 -89 9 -129
16 -122 23 16 16 12 24 -12 28 -13 2 -23 10 -23 18 -1 24 -16 60 -26 60 -5 0
-9 -4 -9 -10 0 -5 -7 -10 -16 -10 -20 0 -51 -29 -32 -31 7 -1 -5 -5 -27 -9
-52 -11 -305 9 -305 24 0 6 4 16 8 22 6 10 173 112 330 202 l57 33 -45 -5
c-25 -3 -115 -10 -200 -16 -85 -6 -240 -17 -345 -25 -104 -8 -372 -22 -594
-30 -223 -8 -409 -19 -414 -24 -10 -10 16 -16 273 -56 96 -15 189 -29 207 -32
17 -3 40 0 50 5 16 10 15 12 -12 22 -23 9 -139 22 -252 30 -2 0 -3 6 -3 14 0
20 69 24 140 10 30 -7 109 -15 175 -19 65 -4 142 -14 170 -21 76 -22 208 -42
330 -50 l110 -8 -78 -7 c-43 -4 -84 -12 -90 -18 -15 -15 -102 -14 -277 3 -80
8 -152 14 -160 15 -17 0 -36 3 -210 26 -69 9 -196 27 -283 41 -87 13 -172 24
-188 24 -51 0 -31 -18 29 -25 67 -8 194 -33 201 -40 8 -9 -33 -5 -123 11 -111
19 -133 16 -86 -14 51 -33 164 -66 345 -102 172 -34 193 -40 224 -66 29 -25
125 -59 281 -99 145 -37 253 -75 280 -100 15 -13 374 -15 3218 -15 l3202 0 0
2405 0 2405 -1368 0 -1369 0 -36 -40 c-38 -43 -43 -53 -51 -115 -13 -92 -31
-137 -110 -280 -57 -103 -84 -160 -91 -190 -6 -28 -16 -61 -34 -110 -4 -11
-17 -40 -29 -65 -11 -25 -32 -70 -46 -100 -14 -30 -35 -66 -46 -80 l-20 -25 0
31 c0 46 -25 110 -60 152 -16 20 -30 47 -30 59 0 13 -11 41 -24 62 -28 44 -56
175 -56 261 0 32 -5 71 -11 87 -19 48 -38 136 -39 176 0 39 22 98 47 128 7 9
11 24 7 33 -5 13 -23 16 -110 16 -102 0 -104 0 -121 -27 -9 -16 -37 -49 -62
-75 -26 -26 -47 -51 -48 -56 -1 -6 -35 -66 -74 -134 -39 -67 -82 -142 -96
-166 -34 -60 -83 -240 -104 -382 -5 -36 -14 -90 -19 -121 -6 -30 -10 -67 -10
-81 0 -29 -32 -168 -48 -208 -17 -45 -32 -96 -32 -113 0 -24 -35 -40 -60 -27
-11 6 -20 15 -20 20 0 5 -8 11 -18 14 -10 4 -32 35 -48 70 -17 36 -27 63 -24
61 4 -2 8 17 9 44 1 35 -4 55 -20 74 -12 16 -16 27 -9 27 9 0 9 4 3 13 -9 11
-26 74 -28 103 0 7 -18 27 -39 46 l-39 35 0 104 c0 57 5 127 11 154 6 28 16
85 23 127 7 42 16 75 21 72 4 -3 8 4 8 15 0 11 6 24 14 28 46 27 86 161 86
292 l0 91 -105 0 -105 0 -1 -82 c-2 -99 0 -111 14 -120 5 -3 10 -20 9 -36 0
-17 6 -36 14 -43 10 -8 13 -22 9 -41 -4 -17 -2 -28 4 -28 6 0 11 -5 11 -10 0
-7 -6 -7 -17 -1 -10 5 -25 12 -33 14 -9 3 -21 17 -29 33 -45 96 -43 94 -78 94
-33 0 -63 -18 -63 -38 0 -5 -6 -15 -14 -21 -23 -20 -26 -93 -13 -361 7 -140
11 -265 9 -277 -5 -30 -12 -29 -212 7 -183 34 -434 70 -487 70 -42 0 -35 -15
11 -24 22 -4 36 -13 39 -26 3 -12 14 -20 25 -20 12 0 24 -4 27 -10 3 -5 16
-10 29 -10 13 0 33 -9 45 -19 l22 -20 -20 -20 -20 -20 32 6 c29 6 31 5 18 -11
-19 -22 -65 -46 -89 -46 -11 0 -25 -7 -32 -15 -7 -8 -27 -15 -45 -15 -19 0
-54 -9 -79 -20 -42 -17 -46 -22 -40 -45 5 -20 3 -25 -13 -25 -27 0 -34 9 -23
31 13 23 -1 32 -34 19 -20 -7 -27 -6 -35 8 -8 12 -10 13 -11 3 0 -10 -7 -8
-24 9 -14 12 -31 20 -39 17 -29 -11 -97 88 -97 143 0 11 -4 20 -10 20 -22 0
-8 29 18 38 24 9 24 11 5 11 -12 1 -24 -2 -26 -6 -3 -5 -35 -7 -71 -7 l-66 1
43 -50 c23 -28 56 -70 73 -94 17 -24 46 -55 65 -69 49 -37 150 -86 166 -80 7
3 18 -3 25 -12 7 -10 25 -23 41 -29 15 -7 27 -17 27 -23 0 -6 -6 -8 -12 -4
-10 6 -10 5 -1 -7 6 -8 43 -25 82 -39 46 -15 66 -27 58 -32 -7 -5 1 -6 17 -2
18 4 27 3 23 -3 -7 -11 105 -33 163 -33 41 0 94 -52 109 -106 6 -21 13 -118
16 -214 3 -96 8 -192 10 -212 5 -34 2 -39 -25 -53 -38 -20 -54 -58 -41 -97 9
-25 8 -27 -8 -19 -10 6 -23 17 -31 25 -7 9 -19 16 -27 16 -9 0 -13 6 -9 15 3
8 1 15 -5 15 -6 0 -20 11 -30 24 -26 33 -63 40 -99 19 -17 -9 -30 -25 -30 -35
0 -9 -5 -20 -10 -23 -6 -3 -19 -25 -29 -48 -11 -23 -33 -57 -50 -74 -40 -42
-134 -85 -167 -77 -15 4 -31 1 -42 -8 -22 -18 -79 -23 -97 -8 -9 7 -58 14
-117 17 -157 6 -220 16 -239 39 -6 8 -20 14 -30 14 -11 0 -19 6 -19 14 0 8
-21 21 -50 31 -27 9 -50 21 -50 26 0 5 -6 9 -14 9 -9 0 -12 7 -9 18 3 12 -10
36 -37 67 -23 27 -46 59 -51 72 -5 12 -13 23 -19 23 -5 0 -10 9 -10 20 0 10
-20 36 -46 57 -25 21 -50 48 -55 61 -5 12 -13 21 -19 20 -6 -2 -18 10 -28 27
-9 16 -25 38 -34 49 -10 11 -18 24 -18 29 0 10 -80 87 -91 87 -16 0 -47 41
-79 102 -19 37 -37 65 -41 62 -16 -10 -14 34 4 86 20 61 46 220 47 290 0 25 9
70 19 100 11 30 23 73 27 95 4 24 20 55 39 76 41 46 62 127 47 182 -6 20 -7
36 -4 33 27 -15 83 -35 111 -40 47 -8 159 -64 203 -100 20 -17 69 -54 110 -83
76 -55 156 -128 221 -203 20 -24 40 -41 43 -37 19 19 -132 181 -247 265 -81
59 -91 66 -162 101 -32 16 -53 31 -46 33 11 4 -61 41 -393 202 -76 37 -140 71
-143 76 -3 5 32 -8 77 -30 85 -40 105 -42 88 -10 -5 10 -10 40 -10 67 0 71
-17 118 -51 147 -22 19 -37 24 -55 20 -15 -4 -24 -2 -24 6 0 40 -65 53 -96 18
-16 -19 -29 -23 -74 -22 -30 1 -81 9 -113 18 -32 9 -79 16 -104 16 -93 0 -30
13 103 21 165 10 178 13 164 40 -10 18 -26 19 -415 19 l-403 0 14 -29z m734
-197 c0 -2 -7 -4 -15 -4 -8 0 -15 4 -15 10 0 5 7 7 15 4 8 -4 15 -8 15 -10z
m149 -70 c14 -12 -19 -1 -35 12 -18 14 -18 14 6 3 14 -6 27 -13 29 -15z m189
-145 c2 -5 8 -7 13 -3 5 3 9 1 9 -5 0 -19 -20 -22 -50 -6 -17 9 -28 20 -24 26
6 11 47 1 52 -12z m348 -147 c-5 -4 -66 26 -66 33 0 3 16 -3 35 -12 19 -9 33
-18 31 -21z m-910 -288 c-9 -23 -36 -17 -36 9 0 18 2 19 10 7 8 -12 11 -11 17
10 6 20 8 21 11 7 2 -10 1 -25 -2 -33z m100 34 c18 10 192 17 183 8 -3 -3 -60
-12 -127 -20 -67 -8 -127 -18 -133 -22 -7 -4 -7 2 1 16 9 18 14 20 21 9 6 -11
9 -10 15 5 5 12 9 14 14 6 5 -9 13 -9 26 -2z m-151 -38 c-3 -5 -14 -10 -23
-10 -15 0 -15 2 -2 10 20 13 33 13 25 0z m2680 -130 c22 -8 25 -13 16 -24 -18
-21 -48 -25 -68 -10 -11 8 -13 13 -5 14 6 0 12 7 12 15 0 18 9 19 45 5z m-245
-23 c0 -8 -11 -24 -24 -36 -21 -20 -31 -22 -71 -17 -55 9 -51 22 11 32 25 3
48 13 51 20 7 18 33 18 33 1z m-186 -76 c26 -10 10 -20 -60 -36 -32 -7 -70 -9
-94 -5 -63 12 -61 23 3 16 35 -3 57 -2 57 5 0 21 59 34 94 20z m-2099 -41 c-3
-5 -12 -10 -18 -10 -7 0 -6 4 3 10 19 12 23 12 15 0z m2112 -45 c-4 -8 -13
-15 -22 -15 -21 0 -19 28 3 32 22 5 26 2 19 -17z m-377 11 c0 -2 -9 -6 -20 -9
-11 -3 -18 -1 -14 4 5 9 34 13 34 5z m3180 -34 c0 -13 -6 -18 -22 -16 -13 1
-27 3 -32 3 -5 1 -3 8 4 16 18 21 50 19 50 -3z m-2409 -132 c5 -42 4 -118 -2
-131 -4 -8 -13 -70 -18 -137 -6 -66 -15 -131 -20 -144 -5 -13 -19 -54 -31 -93
-47 -147 -122 -309 -154 -331 -11 -7 -28 -14 -38 -14 -18 0 -42 33 -31 44 4 3
-2 6 -13 5 -10 -1 -27 -1 -37 -1 -16 2 -17 4 -3 17 8 8 21 15 29 15 42 0 77
43 77 94 0 28 -44 86 -66 86 -11 0 -13 26 -9 153 9 241 15 292 38 339 28 54
67 76 164 92 101 17 113 18 114 6z m2309 -155 c15 -14 36 -55 49 -93 12 -38
31 -83 42 -101 10 -17 19 -38 19 -45 0 -16 -41 -33 -150 -65 -41 -12 -113 -38
-160 -57 -47 -20 -125 -47 -175 -61 -49 -15 -92 -28 -93 -29 -2 -1 -1 -12 3
-23 8 -25 29 -26 92 -5 44 15 51 15 98 -1 61 -21 85 -47 85 -91 0 -44 20 -136
33 -152 5 -7 10 -31 9 -55 0 -32 6 -49 28 -72 25 -28 45 -81 55 -150 43 -288
44 -367 5 -432 -38 -62 -62 -84 -127 -115 -65 -30 -74 -42 -47 -62 14 -11 14
-15 -2 -48 l-17 -36 37 -60 c20 -33 36 -68 36 -79 0 -53 -252 -121 -302 -80
-8 6 -27 34 -42 60 -15 27 -45 60 -66 75 -22 15 -39 32 -40 38 0 7 -11 36 -24
65 -13 30 -27 83 -31 119 -4 36 -11 82 -16 104 -6 21 -12 70 -14 110 -2 39
-10 96 -17 126 -22 88 -16 163 17 201 30 36 30 53 -1 249 -22 137 -18 130 -74
130 -44 0 -52 3 -76 35 -16 21 -35 35 -48 35 -45 0 -259 -127 -290 -172 -21
-29 -20 -72 1 -93 9 -9 32 -27 52 -40 20 -12 42 -29 49 -37 11 -14 41 -158 78
-383 15 -94 20 -253 9 -298 -7 -25 -11 -27 -56 -27 -27 0 -69 -5 -93 -12 -37
-10 -50 -9 -73 3 -37 19 -49 34 -81 99 -23 48 -26 67 -25 150 0 52 4 142 8
200 6 96 5 109 -16 155 -41 94 -37 263 10 368 23 53 96 226 104 250 9 24 73
50 107 42 36 -8 136 -98 144 -130 11 -44 59 -52 130 -22 21 10 48 17 60 17 13
0 32 11 43 24 25 28 86 52 244 96 63 17 121 35 127 39 7 4 25 41 41 82 15 41
41 94 57 118 16 24 34 51 39 60 15 22 52 52 104 84 55 33 101 30 141 -8z
m-1402 -150 c38 -41 42 -80 10 -121 -31 -40 -38 -44 -79 -44 -57 0 -89 31 -89
86 0 116 83 158 158 79z m-1268 -346 c-6 -10 -15 -19 -20 -19 -13 0 -13 6 2
29 15 25 31 16 18 -10z m-10 -104 c7 -9 11 -17 8 -20 -2 -2 -12 4 -21 15 -9
11 -13 20 -8 20 5 0 14 -7 21 -15z m1688 -134 c35 -48 70 -220 102 -491 11
-96 29 -214 41 -261 24 -106 44 -261 36 -283 -29 -75 -116 122 -117 263 0 25
-18 134 -40 244 -23 110 -50 258 -61 330 -14 98 -24 136 -39 152 -35 38 -20
85 27 85 15 0 32 -13 51 -39z m-2651 -717 c-3 -3 -12 -4 -19 -1 -8 3 -5 6 6 6
11 1 17 -2 13 -5z m683 -631 c0 -5 -7 -16 -14 -26 -11 -14 -15 -15 -19 -4 -3
8 0 20 6 26 13 13 27 15 27 4z m1573 -47 c18 -8 45 -26 60 -41 15 -15 34 -25
41 -22 7 3 27 -8 46 -24 18 -16 38 -29 45 -29 8 0 11 -11 9 -32 -2 -17 -1 -34
4 -37 4 -3 16 -19 25 -34 14 -22 21 -26 32 -17 27 22 75 -57 75 -124 0 -20
-13 -97 -30 -173 -16 -75 -30 -149 -30 -164 0 -15 -4 -31 -10 -34 -5 -3 -10 3
-10 15 0 12 -4 18 -10 15 -16 -10 -12 -45 5 -45 8 0 15 -7 15 -16 0 -22 -37
-12 -96 25 -41 25 -44 29 -28 42 15 13 15 14 -7 19 -15 4 -23 12 -21 23 2 13
-5 17 -28 17 -31 0 -41 -16 -15 -26 8 -4 15 -11 15 -18 0 -6 17 -25 37 -43 42
-34 39 -56 -3 -29 -14 10 -27 16 -28 14 -3 -4 -27 -115 -33 -153 -6 -42 -12
-45 -91 -57 -81 -13 -165 0 -204 32 -21 17 -22 21 -10 65 7 26 26 67 43 91 35
52 104 124 117 124 13 0 22 39 12 45 -5 3 -11 -1 -13 -7 -4 -10 -8 -9 -16 2
-6 8 -11 18 -11 22 0 14 36 14 57 0 20 -13 23 -12 29 4 3 11 10 27 15 37 6 10
7 27 4 38 -4 13 -1 25 9 32 9 7 17 22 19 34 2 12 6 26 10 29 4 4 -1 13 -10 19
-16 12 -14 14 17 27 19 8 42 23 50 33 20 24 22 82 3 89 -18 7 -73 -20 -73 -37
0 -8 -3 -8 -9 2 -7 11 -11 8 -17 -10 -4 -13 -7 -32 -5 -41 1 -10 -3 -18 -8
-18 -6 0 -11 5 -11 10 0 24 -29 7 -35 -20 -4 -16 -10 -30 -15 -30 -12 0 -20
-92 -11 -132 10 -42 5 -47 -15 -20 -12 15 -12 14 -8 -8 5 -23 4 -23 -7 -6 -9
15 -9 23 0 39 10 16 9 23 -7 41 -22 25 -19 64 4 45 11 -9 14 -7 14 12 0 13 -4
20 -8 14 -4 -5 -15 -11 -24 -13 -20 -3 -37 49 -48 148 -6 59 -10 55 -15 -15 0
-11 3 -42 8 -69 10 -59 3 -70 -13 -21 -7 21 -21 46 -31 56 -10 10 -21 35 -25
56 -4 21 -11 46 -16 56 -5 11 -4 32 3 57 10 32 23 47 63 72 127 81 159 90 219
64z m1900 -51 c-3 -105 -24 -272 -40 -319 -9 -27 -18 -58 -19 -70 -2 -12 -9
-37 -15 -56 l-12 -35 -71 3 c-86 4 -132 15 -128 31 1 6 -5 11 -13 11 -8 0 -15
7 -15 15 0 8 -6 15 -13 15 -7 0 -13 10 -14 22 -1 11 -6 24 -12 27 -17 11 -31
52 -60 176 -10 44 -23 98 -29 120 -13 46 -11 48 64 70 92 28 198 43 289 41
l90 -1 -2 -50z m-3468 37 c11 -8 18 -32 9 -32 -7 0 -34 27 -34 34 0 8 13 7 25
-2z m353 -116 c2 -16 -1 -33 -7 -39 -8 -8 -11 -5 -11 9 0 10 -3 30 -7 43 -4
18 -2 23 8 19 8 -2 15 -17 17 -32z m110 4 c-13 -20 -34 -25 -62 -14 -26 10
-18 22 17 27 17 2 38 5 45 5 10 2 10 -2 0 -18z m-124 -71 c-6 -11 -24 -2 -24
11 0 5 7 7 15 4 8 -4 12 -10 9 -15z m-31 -19 c9 -11 23 -17 30 -14 8 3 14 -1
14 -9 0 -16 -8 -16 -51 2 -16 6 -31 9 -34 6 -3 -3 0 -5 7 -5 7 0 9 -5 5 -11
-10 -17 -24 4 -18 29 8 27 24 28 47 2z m-212 -14 c-21 -22 -51 -26 -51 -6 0 9
40 28 59 29 10 1 7 -7 -8 -23z m289 -65 c21 -9 15 -11 -38 -8 -35 2 -68 9 -75
17 -6 7 -7 10 -2 7 6 -3 17 -2 24 3 14 8 45 2 91 -19z m196 20 c5 -5 18 -11
29 -14 11 -3 -23 -5 -74 -6 -100 -1 -118 15 -26 22 28 2 52 4 56 5 3 1 9 -2
15 -7z m-550 -16 c-1 -8 -5 -17 -8 -21 -4 -3 -4 -12 -1 -20 3 -8 0 -14 -6 -14
-18 0 -24 26 -11 49 12 24 29 28 26 6z m124 -15 c0 -5 -5 -10 -11 -10 -5 0 -7
5 -4 10 3 6 8 10 11 10 2 0 4 -4 4 -10z m2180 -52 c-1 -24 -57 -79 -81 -80
-13 0 -46 -7 -73 -15 -37 -12 -50 -13 -56 -3 -5 8 -17 9 -41 2 -37 -10 -99 -5
-99 8 0 4 29 13 65 20 35 7 70 18 76 26 6 8 15 14 20 14 16 0 9 -29 -8 -39
-17 -10 -17 -10 0 -11 9 0 25 8 36 19 10 10 39 21 64 25 25 4 56 16 69 26 28
23 28 23 28 8z m-770 -77 c0 -6 -4 -13 -10 -16 -5 -3 -10 1 -10 9 0 9 5 16 10
16 6 0 10 -4 10 -9z m1885 -136 c175 -25 321 -48 324 -52 3 -3 0 -8 -6 -10
-19 -7 -16 -33 3 -33 9 0 -33 -25 -93 -55 -104 -52 -113 -55 -238 -69 -71 -8
-195 -20 -275 -26 -80 -6 -185 -15 -235 -20 -49 -4 -91 -7 -91 -7 -1 1 -4 18
-8 37 -7 39 -3 41 97 75 52 17 107 50 150 89 15 14 46 29 69 32 41 7 41 7 16
20 -14 7 -83 23 -154 35 -71 11 -133 26 -139 31 -20 21 262 -2 580 -47z
m-2005 -67 c0 -13 -23 -5 -28 10 -2 7 2 10 12 6 9 -3 16 -11 16 -16z m405
-178 c51 -33 108 -87 98 -93 -5 -3 -21 2 -35 11 -44 30 -128 94 -128 98 0 11
38 2 65 -16z m-595 -46 c0 -27 -15 -31 -36 -10 -17 18 -18 43 -1 49 18 7 37
-13 37 -39z m-2487 -21 c-7 -2 -19 -2 -25 0 -7 3 -2 5 12 5 14 0 19 -2 13 -5z
m337 -18 c97 -5 164 -13 180 -21 43 -23 -5 -20 -370 20 -19 2 -52 4 -72 5 -21
0 -38 5 -38 9 0 4 33 5 73 1 39 -4 142 -10 227 -14z"/>
<path d="M4717 2673 c-3 -5 8 -8 23 -8 15 0 26 3 23 8 -2 4 -13 7 -23 7 -10 0
-21 -3 -23 -7z"/>
<path d="M5850 1160 l-35 -19 30 -1 c17 0 41 8 54 17 14 9 21 12 18 6 -4 -6 5
-13 24 -15 38 -6 46 6 13 21 -35 16 -63 13 -104 -9z"/>
<path d="M5988 1055 c-2 -3 -20 -6 -39 -9 -20 -2 -34 -9 -34 -17 0 -9 18 -14
63 -15 66 -3 73 3 44 29 -20 18 -26 20 -34 12z"/>
<path d="M5972 972 c-24 -8 -41 -16 -38 -19 8 -8 126 8 121 17 -10 15 -41 16
-83 2z"/>
<path d="M5787 896 c-6 -15 1 -26 15 -26 11 0 10 27 -1 34 -5 3 -11 0 -14 -8z"/>
<path d="M5885 880 c-3 -5 -1 -10 4 -10 6 0 11 5 11 10 0 6 -2 10 -4 10 -3 0
-8 -4 -11 -10z"/>
<path d="M6070 810 c-8 -5 -11 -12 -7 -16 4 -4 13 -2 19 4 15 15 7 24 -12 12z"/>
<path d="M7688 563 c6 -2 18 -2 25 0 6 3 1 5 -13 5 -14 0 -19 -2 -12 -5z"/>
<path d="M6550 4786 c0 -16 7 -27 20 -31 11 -4 37 -22 58 -41 51 -47 82 -45
110 5 15 27 21 48 16 65 -6 26 -7 26 -105 26 -98 0 -99 0 -99 -24z"/>
<path d="M1872 4222 c-58 -19 -49 -23 18 -8 30 7 48 15 40 18 -8 3 -34 -2 -58
-10z"/>
<path d="M6401 3944 c0 -11 3 -14 6 -6 3 7 2 16 -1 19 -3 4 -6 -2 -5 -13z"/>
<path d="M2311 3924 c0 -11 3 -14 6 -6 3 7 2 16 -1 19 -3 4 -6 -2 -5 -13z"/>
<path d="M4192 3893 c2 -9 9 -18 16 -21 18 -6 15 25 -4 32 -11 4 -14 1 -12
-11z"/>
<path d="M4170 3711 c0 -10 30 -24 37 -17 3 3 2 9 -2 15 -8 13 -35 15 -35 2z"/>
<path d="M1 3529 c1 -96 3 -165 6 -154 2 11 18 67 34 124 17 57 28 113 25 125
-3 12 -19 35 -36 51 l-30 29 1 -175z"/>
<path d="M1315 3569 c-8 -46 1 -228 16 -337 6 -40 22 -99 36 -130 13 -31 28
-66 33 -77 5 -11 12 -39 15 -62 8 -54 16 -59 40 -22 20 28 35 38 35 20 0 -5
16 -16 35 -25 40 -19 41 -25 19 -72 -19 -41 -26 -42 -44 -8 -16 28 -45 48 -60
39 -10 -6 12 -94 34 -135 7 -14 21 -50 31 -80 47 -150 163 -391 219 -456 37
-43 56 -42 81 5 26 52 47 186 35 229 -24 87 5 142 76 142 20 0 51 9 69 20 30
19 33 25 45 112 11 81 22 110 77 222 35 71 61 135 58 144 -4 10 -15 13 -43 8
-20 -4 -53 -9 -72 -12 -99 -14 -102 -15 -91 -28 6 -7 13 -37 17 -68 6 -55 6
-56 -24 -72 -39 -20 -152 -22 -152 -3 0 23 -47 37 -121 37 -61 0 -73 3 -90 23
-10 12 -18 33 -19 47 0 34 40 51 138 59 62 5 77 9 80 24 2 10 -3 17 -12 17 -9
0 -16 5 -16 11 0 5 -4 8 -8 5 -10 -6 -130 27 -175 49 -19 9 -51 32 -71 52 -40
40 -117 191 -149 294 -12 38 -25 69 -29 69 -3 0 -9 -18 -13 -41z m255 -815 c0
-14 -4 -23 -10 -19 -5 3 -10 15 -10 26 0 10 5 19 10 19 6 0 10 -12 10 -26z"/>
<path d="M3667 3275 c-15 -19 -27 -40 -27 -48 0 -18 60 -58 73 -50 11 7 4 110
-9 123 -6 6 -20 -3 -37 -25z"/>
<path d="M2402 3148 l-62 -20 5 -56 c7 -72 13 -90 36 -113 20 -20 26 -64 9
-74 -11 -7 -12 -96 -1 -135 21 -75 191 10 191 94 0 16 -9 58 -20 95 -11 36
-24 102 -28 146 l-7 80 -30 2 c-16 1 -58 -8 -93 -19z"/>
<path d="M3511 2744 c0 -11 3 -14 6 -6 3 7 2 16 -1 19 -3 4 -6 -2 -5 -13z"/>
<path d="M3277 1680 c-49 -46 -65 -49 -104 -16 -16 13 -40 26 -53 27 -20 3
-28 -3 -43 -34 -10 -22 -17 -55 -15 -75 3 -31 7 -37 33 -43 17 -3 55 -20 87
-38 58 -32 96 -38 128 -21 25 13 53 102 54 169 1 47 -2 55 -22 62 -18 7 -30 2
-65 -31z"/>
<path d="M5521 1350 c0 -14 -3 -52 -6 -85 -5 -57 -5 -59 11 -40 16 19 16 19
12 -12 -3 -23 0 -33 9 -33 22 0 21 162 -2 167 -4 1 -12 7 -16 15 -6 9 -9 5 -8
-12z m16 -62 c-3 -7 -5 -2 -5 12 0 14 2 19 5 13 2 -7 2 -19 0 -25z"/>
<path d="M5465 1291 c-3 -5 -1 -12 5 -16 5 -3 10 1 10 9 0 18 -6 21 -15 7z"/>
<path d="M5467 1229 c4 -13 8 -18 11 -10 2 7 -1 18 -6 23 -8 8 -9 4 -5 -13z"/>
<path d="M5476 1144 c-8 -22 -9 -21 24 -33 36 -12 37 -11 6 22 -20 21 -25 23
-30 11z"/>
<path d="M5220 1110 c8 -5 29 -9 45 -9 29 1 29 1 5 9 -14 4 -34 8 -45 9 -16 1
-17 -1 -5 -9z"/>
<path d="M5450 1086 c0 -2 7 -6 15 -10 8 -3 15 -1 15 4 0 6 -7 10 -15 10 -8 0
-15 -2 -15 -4z"/>
<path d="M5225 1070 c3 -5 11 -10 16 -10 6 0 7 5 4 10 -3 6 -11 10 -16 10 -6
0 -7 -4 -4 -10z"/>
<path d="M4736 755 c8 -37 7 -35 21 -27 8 5 6 15 -8 32 l-20 25 7 -30z"/>
<path d="M4380 727 c0 -23 -22 -38 -37 -26 -9 8 -13 8 -13 0 0 -6 -15 -20 -32
-31 -47 -28 -19 -25 41 6 35 17 51 31 51 45 0 10 -2 19 -5 19 -3 0 -5 -6 -5
-13z"/>
<path d="M4190 705 c6 -8 8 -20 4 -26 -5 -9 -2 -10 9 -6 9 3 19 2 22 -3 4 -6
11 -10 16 -10 6 0 7 5 4 10 -3 6 4 10 17 10 l23 0 -25 20 c-31 24 -89 28 -70
5z"/>
<path d="M4750 677 c0 -20 -3 -42 -6 -51 -8 -22 12 -20 37 3 28 26 23 75 -8
79 -20 3 -23 -1 -23 -31z"/>
<path d="M4853 684 c3 -15 0 -35 -6 -45 -9 -14 -6 -21 12 -36 l23 -18 -51 -19
c-42 -15 -51 -22 -51 -41 0 -13 -5 -27 -10 -30 -6 -3 -17 -20 -26 -37 -15 -28
-14 -29 3 -24 10 3 52 8 93 11 41 3 85 12 97 20 12 8 32 15 44 15 19 0 20 -2
8 -16 -12 -15 -10 -16 21 -8 19 5 68 9 108 8 79 -1 96 10 31 20 -22 3 -61 16
-86 28 -33 16 -48 18 -51 10 -4 -14 -72 -16 -72 -2 0 6 7 10 15 10 25 0 17 15
-25 49 -34 27 -40 38 -40 69 0 27 -6 41 -21 51 -20 12 -21 11 -16 -15z"/>
<path d="M4012 644 c-12 -8 -27 -25 -32 -37 -9 -19 -9 -20 2 -7 7 8 26 20 42
25 31 10 48 35 24 35 -7 0 -24 -7 -36 -16z"/>
<path d="M4913 624 c9 -17 24 -35 34 -38 17 -7 16 -5 -40 59 -5 6 -2 -4 6 -21z"/>
<path d="M4027 603 c-10 -9 -9 -33 1 -33 4 0 8 9 9 20 2 21 0 24 -10 13z"/>
<path d="M5023 603 c4 -6 -7 -13 -26 -17 l-32 -6 29 -15 c15 -8 33 -12 39 -8
5 3 7 2 4 -4 -3 -5 11 -14 32 -19 35 -10 38 -9 33 8 -4 16 -29 38 -71 63 -9 5
-12 4 -8 -2z"/>
<path d="M5247 537 c-3 -7 3 -13 14 -13 22 0 25 12 5 19 -8 3 -16 0 -19 -6z"/>
<path d="M5150 506 c0 -2 9 -6 20 -9 11 -3 20 -1 20 4 0 5 -9 9 -20 9 -11 0
-20 -2 -20 -4z"/>
<path d="M3800 421 c0 -5 6 -14 14 -20 11 -9 16 -9 21 0 4 6 1 15 -6 20 -18
11 -29 11 -29 0z"/>
<path d="M3756 367 c-9 -35 -6 -43 8 -24 9 12 16 14 21 8 3 -6 2 -11 -3 -11
-6 0 -13 -8 -16 -17 -6 -14 -2 -13 16 4 l22 23 -21 19 c-21 20 -21 20 -27 -2z"/>
<path d="M4447 250 c-22 -26 -21 -30 2 -30 12 0 20 9 23 25 6 30 -2 32 -25 5z"/>
<path d="M4560 220 c0 -5 5 -10 11 -10 5 0 7 5 4 10 -3 6 -8 10 -11 10 -2 0
-4 -4 -4 -10z"/>
</g>
</svg>
