<svg xmlns="http://www.w3.org/2000/svg" xmlns:xlink="http://www.w3.org/1999/xlink" width="500" zoomAndPan="magnify" viewBox="0 0 375 374.999991" height="500" preserveAspectRatio="xMidYMid meet" version="1.0"><defs><clipPath id="8d0815a5ed"><path d="M 218 96 L 302.820312 96 L 302.820312 300 L 218 300 Z M 218 96 " clip-rule="nonzero"/></clipPath></defs><g clip-path="url(#8d0815a5ed)"><path fill="#000000" d="M 218.152344 165.945312 C 218.464844 168.265625 218.847656 170.582031 219.199219 172.894531 C 219.570312 175.308594 219.964844 177.800781 220.152344 180.222656 C 220.328125 182.484375 220.78125 184.839844 221.261719 187.070312 C 221.914062 190.089844 222.699219 193.097656 223.539062 196.078125 C 225.585938 203.335938 228.003906 210.570312 230.636719 217.65625 C 233.535156 225.445312 236.789062 233.390625 240.613281 240.785156 C 242.753906 244.917969 246.742188 252.171875 250.753906 254.578125 C 257.480469 258.613281 264.132812 263.078125 270.265625 268.089844 C 274.847656 271.835938 279.410156 276.101562 283.050781 280.863281 C 286.03125 284.757812 288.691406 289.410156 289.34375 294.3125 L 290.101562 300.03125 L 292.890625 295.277344 C 293.328125 294.527344 293.464844 293.382812 293.816406 292.554688 C 294.714844 290.441406 295.425781 288.183594 296.039062 285.949219 C 296.832031 283.074219 297.484375 280.140625 298.058594 277.199219 C 299.519531 269.703125 300.5 262.007812 301.199219 254.351562 C 302.046875 245.113281 302.472656 235.78125 302.519531 226.453125 C 302.558594 219.484375 302.378906 212.488281 301.957031 205.496094 C 301.851562 203.039062 301.75 200.425781 301.628906 197.707031 C 300.28125 167.1875 298.644531 149.660156 273.34375 121.683594 C 259.933594 110.328125 232.945312 88.949219 229.722656 100.070312 L 228.785156 103.3125 L 218.109375 165.632812 Z M 218.152344 165.945312 " fill-opacity="1" fill-rule="evenodd"/></g><path fill="#ebb8b8" d="M 220.046875 165.792969 L 230.542969 104.507812 C 240.570312 96.726562 263.300781 115.070312 270.523438 123.066406 C 273.140625 125.964844 275.914062 131.984375 277.570312 135.535156 C 279.601562 139.886719 281.355469 144.429688 282.683594 149.027344 C 285.53125 158.886719 287.265625 172.199219 279.410156 179.4375 L 277.109375 181.5625 C 290.074219 184.671875 293.863281 185.648438 299.746094 201.136719 C 302.671875 240.207031 297.636719 278.53125 292.058594 291.652344 C 291.738281 292.40625 291.417969 293.855469 291.238281 294.164062 C 289.039062 277.621094 266.113281 261.558594 251.628906 252.867188 C 241.3125 246.675781 223.183594 194.667969 222.058594 180.1875 C 221.757812 176.292969 220.597656 169.894531 220.046875 165.792969 Z M 220.046875 165.792969 " fill-opacity="1" fill-rule="evenodd"/><path fill="#ffcccc" d="M 273.414062 124.058594 C 293.261719 145.316406 298.824219 164.617188 300.242188 198.027344 C 296.742188 188.511719 292.011719 182.511719 280.730469 180.96875 C 294.953125 167.855469 281.644531 136.585938 273.414062 124.058594 Z M 273.414062 124.058594 " fill-opacity="1" fill-rule="evenodd"/><path fill="#000000" d="M 248.660156 106.679688 L 251.5625 254.949219 L 251.113281 255.496094 C 242.144531 266.472656 228.460938 273.726562 215.296875 278.351562 C 199.703125 283.828125 182.578125 286.511719 166.09375 287.085938 C 148.65625 287.695312 130.21875 286.011719 113.429688 281.105469 C 99.761719 277.109375 84.941406 270.234375 75.847656 258.863281 L 75.441406 258.355469 L 72.554688 110.867188 L 75.9375 114.347656 C 84.210938 122.863281 97.816406 128.277344 109.039062 131.40625 C 125.65625 136.046875 143.691406 137.738281 160.902344 137.398438 C 178.296875 137.058594 196.480469 134.613281 213.054688 129.195312 C 224.128906 125.578125 237.636719 119.503906 245.390625 110.480469 Z M 248.660156 106.679688 " fill-opacity="1" fill-rule="evenodd"/><path fill="#ffcccc" d="M 246.839844 111.730469 L 249.632812 254.28125 C 216.925781 294.289062 107.804688 295.75 77.34375 257.664062 L 74.566406 115.683594 C 88.734375 130.269531 122.160156 140.078125 160.941406 139.316406 C 200.21875 138.546875 233.585938 127.15625 246.839844 111.730469 Z M 246.839844 111.730469 " fill-opacity="1" fill-rule="evenodd"/><path fill="#000000" d="M 159.878906 75.246094 C 171.222656 75.023438 182.667969 75.640625 193.894531 77.296875 C 203.347656 78.691406 212.949219 80.851562 221.910156 84.203125 C 228.660156 86.726562 235.863281 90.238281 241.257812 95.097656 C 245.472656 98.894531 248.832031 103.835938 248.949219 109.6875 C 249.207031 122.917969 233.367188 131.84375 222.925781 136.21875 C 214.105469 139.917969 204.59375 142.453125 195.207031 144.214844 C 184.050781 146.3125 172.636719 147.378906 161.292969 147.601562 C 149.949219 147.824219 138.503906 147.207031 127.277344 145.550781 C 117.824219 144.15625 108.222656 141.996094 99.261719 138.644531 C 92.511719 136.125 85.308594 132.609375 79.914062 127.75 C 75.699219 123.953125 72.335938 119.011719 72.222656 113.160156 C 71.964844 99.929688 87.804688 91.003906 98.246094 86.628906 C 107.066406 82.929688 116.578125 80.394531 125.964844 78.632812 C 137.121094 76.535156 148.535156 75.46875 159.878906 75.246094 Z M 159.878906 75.246094 " fill-opacity="1" fill-rule="evenodd"/><path fill="#ffd8d8" d="M 159.914062 77.164062 C 161.332031 77.136719 162.746094 77.121094 164.15625 77.121094 C 165.570312 77.121094 166.984375 77.136719 168.390625 77.164062 C 169.800781 77.191406 171.207031 77.230469 172.605469 77.285156 C 174.007812 77.339844 175.402344 77.410156 176.792969 77.492188 C 178.183594 77.574219 179.566406 77.667969 180.941406 77.777344 C 182.316406 77.886719 183.683594 78.011719 185.039062 78.148438 C 186.394531 78.28125 187.742188 78.433594 189.078125 78.59375 C 190.414062 78.757812 191.738281 78.933594 193.050781 79.121094 C 194.359375 79.3125 195.65625 79.511719 196.941406 79.726562 C 198.226562 79.941406 199.492188 80.167969 200.746094 80.410156 C 202 80.648438 203.234375 80.902344 204.453125 81.164062 C 205.671875 81.429688 206.875 81.707031 208.054688 81.996094 C 209.238281 82.285156 210.402344 82.582031 211.542969 82.894531 C 212.6875 83.207031 213.808594 83.53125 214.910156 83.863281 C 216.011719 84.199219 217.089844 84.542969 218.144531 84.898438 C 219.199219 85.253906 220.230469 85.621094 221.238281 86 C 222.25 86.375 223.230469 86.761719 224.191406 87.160156 C 225.148438 87.554688 226.082031 87.960938 226.984375 88.378906 C 227.890625 88.792969 228.769531 89.21875 229.621094 89.652344 C 230.472656 90.085938 231.296875 90.527344 232.09375 90.980469 C 232.886719 91.429688 233.652344 91.886719 234.390625 92.355469 C 235.128906 92.820312 235.835938 93.296875 236.511719 93.777344 C 237.1875 94.257812 237.832031 94.746094 238.449219 95.242188 C 239.0625 95.738281 239.644531 96.238281 240.199219 96.746094 C 240.75 97.253906 241.269531 97.765625 241.753906 98.285156 C 242.242188 98.804688 242.695312 99.328125 243.117188 99.855469 C 243.539062 100.382812 243.925781 100.917969 244.28125 101.453125 C 244.636719 101.992188 244.957031 102.53125 245.242188 103.074219 C 245.527344 103.621094 245.78125 104.167969 246 104.71875 C 246.21875 105.269531 246.402344 105.820312 246.550781 106.378906 C 246.703125 106.933594 246.816406 107.488281 246.898438 108.046875 C 246.976562 108.605469 247.023438 109.167969 247.035156 109.726562 C 247.046875 110.289062 247.023438 110.847656 246.964844 111.410156 C 246.90625 111.972656 246.8125 112.53125 246.683594 113.09375 C 246.554688 113.652344 246.394531 114.214844 246.195312 114.773438 C 246 115.332031 245.769531 115.886719 245.503906 116.445312 C 245.238281 117 244.941406 117.550781 244.605469 118.101562 C 244.273438 118.652344 243.90625 119.199219 243.507812 119.746094 C 243.105469 120.289062 242.671875 120.832031 242.207031 121.367188 C 241.742188 121.90625 241.242188 122.4375 240.710938 122.96875 C 240.179688 123.496094 239.617188 124.019531 239.019531 124.539062 C 238.425781 125.058594 237.800781 125.570312 237.144531 126.078125 C 236.484375 126.585938 235.796875 127.085938 235.078125 127.582031 C 234.363281 128.078125 233.613281 128.566406 232.835938 129.046875 C 232.0625 129.527344 231.253906 130.003906 230.421875 130.46875 C 229.585938 130.9375 228.726562 131.394531 227.835938 131.847656 C 226.949219 132.296875 226.03125 132.742188 225.089844 133.175781 C 224.148438 133.609375 223.179688 134.035156 222.1875 134.449219 C 221.195312 134.867188 220.179688 135.273438 219.136719 135.667969 C 218.097656 136.066406 217.035156 136.453125 215.945312 136.832031 C 214.859375 137.207031 213.75 137.574219 212.621094 137.929688 C 211.492188 138.289062 210.34375 138.632812 209.171875 138.96875 C 208 139.300781 206.8125 139.625 205.605469 139.9375 C 204.398438 140.25 203.171875 140.550781 201.929688 140.839844 C 200.6875 141.128906 199.429688 141.40625 198.152344 141.667969 C 196.878906 141.933594 195.589844 142.1875 194.289062 142.425781 C 192.984375 142.667969 191.667969 142.894531 190.339844 143.109375 C 189.011719 143.324219 187.671875 143.527344 186.324219 143.714844 C 184.972656 143.90625 183.613281 144.082031 182.242188 144.246094 C 180.871094 144.410156 179.496094 144.558594 178.109375 144.695312 C 176.722656 144.832031 175.332031 144.953125 173.933594 145.066406 C 172.535156 145.175781 171.132812 145.269531 169.726562 145.351562 C 168.320312 145.4375 166.910156 145.503906 165.496094 145.558594 C 164.085938 145.613281 162.671875 145.65625 161.257812 145.683594 C 159.84375 145.710938 158.425781 145.726562 157.015625 145.726562 C 155.601562 145.726562 154.1875 145.714844 152.78125 145.6875 C 151.371094 145.660156 149.964844 145.617188 148.566406 145.5625 C 147.164062 145.507812 145.769531 145.4375 144.378906 145.355469 C 142.988281 145.273438 141.605469 145.179688 140.230469 145.070312 C 138.855469 144.960938 137.488281 144.839844 136.132812 144.703125 C 134.777344 144.566406 133.429688 144.417969 132.09375 144.253906 C 130.757812 144.089844 129.433594 143.914062 128.125 143.726562 C 126.8125 143.535156 125.515625 143.335938 124.230469 143.121094 C 122.945312 142.90625 121.679688 142.679688 120.425781 142.4375 C 119.171875 142.199219 117.9375 141.945312 116.71875 141.683594 C 115.5 141.417969 114.296875 141.140625 113.117188 140.851562 C 111.933594 140.566406 110.769531 140.265625 109.628906 139.953125 C 108.484375 139.640625 107.363281 139.320312 106.261719 138.984375 C 105.160156 138.648438 104.082031 138.304688 103.027344 137.949219 C 101.972656 137.59375 100.941406 137.226562 99.933594 136.851562 C 98.921875 136.472656 97.941406 136.085938 96.980469 135.691406 C 96.023438 135.292969 95.09375 134.886719 94.1875 134.46875 C 93.28125 134.054688 92.402344 133.628906 91.550781 133.195312 C 90.699219 132.761719 89.875 132.320312 89.078125 131.871094 C 88.285156 131.417969 87.519531 130.960938 86.78125 130.492188 C 86.042969 130.027344 85.339844 129.550781 84.660156 129.070312 C 83.984375 128.589844 83.339844 128.101562 82.722656 127.605469 C 82.109375 127.113281 81.527344 126.609375 80.976562 126.101562 C 80.421875 125.59375 79.902344 125.082031 79.417969 124.5625 C 78.929688 124.046875 78.476562 123.523438 78.054688 122.992188 C 77.632812 122.464844 77.246094 121.933594 76.890625 121.394531 C 76.535156 120.859375 76.214844 120.316406 75.929688 119.773438 C 75.644531 119.226562 75.390625 118.679688 75.171875 118.128906 C 74.953125 117.578125 74.769531 117.027344 74.621094 116.472656 C 74.46875 115.914062 74.355469 115.359375 74.273438 114.800781 C 74.195312 114.242188 74.148438 113.683594 74.136719 113.121094 C 74.125 112.5625 74.152344 112 74.207031 111.4375 C 74.265625 110.875 74.359375 110.316406 74.488281 109.753906 C 74.617188 109.195312 74.777344 108.632812 74.976562 108.074219 C 75.171875 107.515625 75.402344 106.960938 75.667969 106.40625 C 75.933594 105.847656 76.230469 105.296875 76.566406 104.746094 C 76.898438 104.195312 77.265625 103.648438 77.664062 103.101562 C 78.066406 102.558594 78.5 102.015625 78.964844 101.480469 C 79.429688 100.941406 79.929688 100.410156 80.460938 99.882812 C 80.992188 99.351562 81.554688 98.828125 82.152344 98.308594 C 82.746094 97.792969 83.371094 97.277344 84.027344 96.769531 C 84.6875 96.261719 85.375 95.761719 86.09375 95.265625 C 86.808594 94.769531 87.558594 94.28125 88.335938 93.800781 C 89.109375 93.320312 89.917969 92.84375 90.75 92.378906 C 91.585938 91.910156 92.445312 91.453125 93.335938 91 C 94.222656 90.550781 95.140625 90.109375 96.082031 89.675781 C 97.023438 89.238281 97.992188 88.816406 98.984375 88.398438 C 99.976562 87.984375 100.992188 87.574219 102.035156 87.179688 C 103.074219 86.78125 104.140625 86.394531 105.226562 86.015625 C 106.3125 85.640625 107.421875 85.273438 108.550781 84.917969 C 109.679688 84.5625 110.832031 84.214844 112 83.878906 C 113.171875 83.546875 114.359375 83.222656 115.566406 82.910156 C 116.777344 82.597656 118 82.296875 119.242188 82.007812 C 120.484375 81.71875 121.746094 81.445312 123.019531 81.179688 C 124.292969 80.914062 125.582031 80.660156 126.882812 80.421875 C 128.1875 80.179688 129.503906 79.953125 130.832031 79.738281 C 132.160156 79.523438 133.5 79.320312 134.851562 79.132812 C 136.199219 78.941406 137.5625 78.765625 138.929688 78.601562 C 140.300781 78.441406 141.675781 78.289062 143.0625 78.152344 C 144.449219 78.015625 145.839844 77.894531 147.238281 77.785156 C 148.636719 77.675781 150.039062 77.578125 151.445312 77.496094 C 152.851562 77.414062 154.261719 77.34375 155.675781 77.289062 C 157.085938 77.234375 158.5 77.191406 159.914062 77.164062 Z M 159.914062 77.164062 " fill-opacity="1" fill-rule="nonzero"/><path fill="#000000" d="M 160.632812 94.597656 C 167.496094 94.464844 175.253906 95.238281 181.71875 97.65625 C 185.824219 99.191406 191.4375 102.25 191.535156 107.300781 C 191.636719 112.347656 186.148438 115.628906 182.105469 117.320312 C 175.738281 119.992188 168.015625 121.070312 161.15625 121.203125 C 154.296875 121.339844 146.535156 120.5625 140.070312 118.144531 C 135.964844 116.613281 130.351562 113.550781 130.253906 108.503906 C 130.152344 103.453125 135.640625 100.175781 139.683594 98.480469 C 146.050781 95.8125 153.773438 94.734375 160.632812 94.597656 Z M 160.632812 94.597656 " fill-opacity="1" fill-rule="evenodd"/><path fill="#000000" d="M 160.671875 96.515625 C 161.613281 96.5 162.550781 96.5 163.488281 96.515625 C 164.425781 96.535156 165.355469 96.570312 166.28125 96.625 C 167.203125 96.679688 168.117188 96.753906 169.019531 96.84375 C 169.921875 96.933594 170.808594 97.042969 171.683594 97.167969 C 172.554688 97.292969 173.40625 97.4375 174.238281 97.59375 C 175.074219 97.753906 175.882812 97.929688 176.667969 98.121094 C 177.457031 98.3125 178.214844 98.519531 178.945312 98.742188 C 179.679688 98.964844 180.378906 99.203125 181.050781 99.453125 C 181.71875 99.703125 182.355469 99.96875 182.960938 100.242188 C 183.5625 100.519531 184.128906 100.808594 184.65625 101.109375 C 185.183594 101.40625 185.675781 101.71875 186.125 102.039062 C 186.574219 102.359375 186.984375 102.6875 187.351562 103.023438 C 187.714844 103.363281 188.039062 103.707031 188.320312 104.058594 C 188.601562 104.410156 188.835938 104.765625 189.027344 105.128906 C 189.21875 105.488281 189.363281 105.855469 189.460938 106.226562 C 189.5625 106.59375 189.613281 106.964844 189.621094 107.339844 C 189.628906 107.710938 189.589844 108.085938 189.503906 108.457031 C 189.421875 108.828125 189.289062 109.199219 189.113281 109.570312 C 188.9375 109.941406 188.714844 110.304688 188.449219 110.667969 C 188.183594 111.03125 187.875 111.386719 187.519531 111.738281 C 187.167969 112.089844 186.773438 112.433594 186.335938 112.773438 C 185.898438 113.109375 185.421875 113.4375 184.902344 113.757812 C 184.386719 114.078125 183.832031 114.390625 183.242188 114.6875 C 182.652344 114.988281 182.027344 115.277344 181.367188 115.554688 C 180.707031 115.832031 180.015625 116.09375 179.292969 116.34375 C 178.570312 116.597656 177.816406 116.832031 177.039062 117.054688 C 176.261719 117.277344 175.460938 117.484375 174.632812 117.675781 C 173.804688 117.871094 172.960938 118.046875 172.09375 118.203125 C 171.226562 118.363281 170.34375 118.507812 169.445312 118.632812 C 168.546875 118.757812 167.636719 118.867188 166.71875 118.957031 C 165.796875 119.050781 164.867188 119.121094 163.933594 119.175781 C 162.996094 119.230469 162.058594 119.269531 161.117188 119.289062 C 160.175781 119.304688 159.238281 119.304688 158.300781 119.289062 C 157.363281 119.269531 156.433594 119.234375 155.507812 119.179688 C 154.582031 119.125 153.671875 119.050781 152.769531 118.960938 C 151.867188 118.871094 150.976562 118.761719 150.105469 118.636719 C 149.234375 118.511719 148.382812 118.367188 147.546875 118.210938 C 146.714844 118.050781 145.90625 117.875 145.117188 117.683594 C 144.332031 117.492188 143.574219 117.285156 142.839844 117.0625 C 142.109375 116.839844 141.410156 116.601562 140.738281 116.351562 C 140.066406 116.101562 139.429688 115.835938 138.828125 115.5625 C 138.226562 115.285156 137.660156 114.996094 137.132812 114.695312 C 136.601562 114.398438 136.113281 114.085938 135.664062 113.765625 C 135.214844 113.445312 134.804688 113.117188 134.4375 112.78125 C 134.070312 112.441406 133.746094 112.097656 133.46875 111.746094 C 133.1875 111.394531 132.953125 111.039062 132.761719 110.675781 C 132.570312 110.316406 132.425781 109.949219 132.328125 109.578125 C 132.226562 109.210938 132.171875 108.839844 132.167969 108.464844 C 132.160156 108.09375 132.199219 107.71875 132.28125 107.347656 C 132.367188 106.976562 132.5 106.605469 132.675781 106.234375 C 132.851562 105.863281 133.074219 105.5 133.339844 105.136719 C 133.605469 104.773438 133.914062 104.417969 134.269531 104.066406 C 134.621094 103.714844 135.015625 103.371094 135.453125 103.03125 C 135.890625 102.695312 136.367188 102.367188 136.882812 102.046875 C 137.402344 101.726562 137.953125 101.414062 138.546875 101.117188 C 139.136719 100.816406 139.761719 100.527344 140.421875 100.25 C 141.082031 99.972656 141.773438 99.710938 142.496094 99.460938 C 143.21875 99.207031 143.96875 98.972656 144.75 98.75 C 145.527344 98.527344 146.328125 98.320312 147.15625 98.128906 C 147.980469 97.933594 148.828125 97.757812 149.695312 97.601562 C 150.5625 97.441406 151.441406 97.296875 152.339844 97.171875 C 153.238281 97.046875 154.148438 96.9375 155.070312 96.847656 C 155.992188 96.753906 156.921875 96.683594 157.855469 96.628906 C 158.792969 96.574219 159.730469 96.535156 160.671875 96.515625 Z M 160.671875 96.515625 " fill-opacity="1" fill-rule="nonzero"/></svg>
